<?xml version="1.0" standalone="no"?><!DOCTYPE svg PUBLIC "-//W3C//DTD SVG 1.1//EN" "http://www.w3.org/Graphics/SVG/1.1/DTD/svg11.dtd"><svg t="1680747123093" class="icon" viewBox="0 0 1024 1024" version="1.1" xmlns="http://www.w3.org/2000/svg" p-id="2395" xmlns:xlink="http://www.w3.org/1999/xlink" width="200" height="200"><path d="M389.12 593.92c43.52 25.6 92.16 40.96 140.8 40.96 15.36 0 30.72-2.56 46.08-5.12 15.36-2.56 28.16-12.8 33.28-25.6 5.12-12.8 5.12-25.6 0-35.84v-2.56h-2.56c-40.96 17.92-87.04 20.48-133.12 7.68-79.36-23.04-133.12-92.16-130.56-168.96 2.56-43.52 23.04-84.48 56.32-115.2 40.96-33.28 94.72-48.64 148.48-40.96 51.2 7.68 97.28 25.6 138.24 56.32h5.12v-2.56c12.8-53.76-35.84-74.24-35.84-76.8-30.72-15.36-64-23.04-99.84-28.16-81.92-12.8-163.84 15.36-215.04 74.24-46.08 53.76-64 120.32-43.52 192 12.8 56.32 46.08 102.4 92.16 130.56" fill="#FFFFFF" p-id="2396"></path><path d="M737.28 399.36c-40.96-53.76-94.72-87.04-163.84-97.28-10.24-2.56-20.48-2.56-33.28-2.56-7.68 0-25.6 2.56-35.84 15.36-7.68 10.24-7.68 23.04 0 38.4v2.56h2.56c23.04-5.12 69.12-7.68 115.2 17.92 43.52 23.04 76.8 46.08 110.08 112.64l2.56 2.56 2.56-2.56c12.8-7.68 17.92-23.04 17.92-25.6 0-20.48-5.12-43.52-17.92-61.44" fill="#FFFFFF" opacity=".6" p-id="2397"></path><path d="M634.88 430.08c-58.88-35.84-125.44-48.64-186.88-35.84-15.36 2.56-28.16 12.8-33.28 25.6-5.12 12.8-5.12 25.6 0 35.84v2.56h2.56c40.96-17.92 87.04-20.48 133.12-7.68 79.36 23.04 133.12 92.16 130.56 168.96-2.56 43.52-23.04 84.48-56.32 115.2-40.96 33.28-94.72 48.64-148.48 40.96-51.2-7.68-97.28-25.6-135.68-56.32l-5.12-2.56H332.8c-10.24 51.2 35.84 74.24 35.84 74.24 30.72 15.36 64 23.04 99.84 28.16 12.8 2.56 25.6 2.56 35.84 2.56 69.12 0 133.12-28.16 179.2-76.8 46.08-53.76 64-120.32 43.52-192-12.8-48.64-46.08-94.72-92.16-122.88" fill="#FFFFFF" p-id="2398"></path><path d="M483.84 727.04c7.68 0 25.6-2.56 35.84-15.36 7.68-10.24 7.68-23.04 0-38.4v-2.56h-2.56c-23.04 5.12-69.12 7.68-115.2-17.92-43.52-23.04-76.8-46.08-110.08-112.64V537.6l-2.56 2.56c-12.8 7.68-17.92 23.04-17.92 25.6-2.56 17.92 5.12 43.52 17.92 58.88 40.96 53.76 94.72 87.04 163.84 99.84 7.68 0 17.92 0 30.72 2.56" fill="#FFFFFF" opacity=".6" p-id="2399"></path></svg>