<?xml version="1.0" standalone="no"?><!DOCTYPE svg PUBLIC "-//W3C//DTD SVG 1.1//EN" "http://www.w3.org/Graphics/SVG/1.1/DTD/svg11.dtd"><svg t="1680747378153" class="icon" viewBox="0 0 1025 1024" version="1.1" xmlns="http://www.w3.org/2000/svg" p-id="6433" xmlns:xlink="http://www.w3.org/1999/xlink" width="200.1953125" height="200"><path d="M846.39872 661.333333c8.533333 46.933333 4.266667 81.066667 4.266667 81.066667 0 72.533333-46.933333 132.266667-110.933334 153.6-34.133333 12.8-55.466667 42.666667-55.466666 76.8 110.933333 0 200.533333-76.8 226.133333-174.933333 17.066667 4.266667 51.2 17.066667 72.533333 0-4.266667-4.266667-25.6-21.333333-136.533333-136.533334 0-4.266667 0-4.266667 0 0M637.332053 917.333333c-8.533333-46.933333-4.266667-81.066667-4.266666-81.066666 0-72.533333 46.933333-132.266667 110.933333-153.6 34.133333-12.8 55.466667-42.666667 55.466667-76.8-110.933333 0-200.533333 76.8-226.133334 174.933333-17.066667-4.266667-51.2-17.066667-72.533333 0 0 4.266667 25.6 17.066667 136.533333 136.533333-4.266667 4.266667 0 4.266667 0 0" fill="#4FB4E3" opacity=".6" p-id="6434"></path><path d="M364.265387 832c12.8 0 38.4-4.266667 55.466666-21.333333 8.533333-12.8 8.533333-34.133333 0-55.466667v-4.266667h-4.266666c-34.133333 4.266667-102.4 8.533333-170.666667-29.866666-64-34.133333-115.2-68.266667-166.4-166.4v-4.266667s-4.266667 0-4.266667 4.266667c-25.6 8.533333-29.866667 34.133333-29.866666 34.133333-4.266667 29.866667 4.266667 64 25.6 89.6C129.59872 759.466667 214.932053 810.666667 313.065387 827.733333c17.066667 4.266667 29.866667 4.266667 51.2 4.266667" fill="#4FB4E3" p-id="6435"></path><path d="M353.34272 898.986667C276.54272 890.453333 208.276053 860.586667 148.54272 817.92 144.276053 813.653333 144.276053 813.653333 140.009387 813.653333c0 4.266667-4.266667 4.266667-4.266667 8.533334C122.94272 898.986667 191.209387 933.12 191.209387 933.12c46.933333 21.333333 98.133333 34.133333 149.333333 42.666667 17.066667 4.266667 38.4 4.266667 55.466667 4.266666 42.666667 0 81.066667-8.533333 119.466666-21.333333 0-38.4-34.133333-68.266667-72.533333-59.733333-29.866667 4.266667-59.733333 4.266667-89.6 0" fill="#4FB4E3" p-id="6436"></path><path d="M743.99872 341.333333c-59.733333-81.066667-140.8-128-243.2-149.333333-17.066667 0-29.866667-4.266667-51.2-4.266667-8.533333 0-38.4 4.266667-51.2 25.6-12.8 12.8-12.8 29.866667-4.266667 55.466667v4.266667h4.266667c34.133333-4.266667 102.4-8.533333 170.666667 29.866666 64 34.133333 115.2 68.266667 166.4 166.4v4.266667s4.266667 0 4.266666-4.266667c25.6-12.8 29.866667-38.4 29.866667-38.4 4.266667-29.866667-8.533333-64-25.6-89.6" fill="#4FB4E3" p-id="6437"></path><path d="M223.465387 631.466667c64 38.4 140.8 59.733333 213.333333 59.733333 21.333333 0 46.933333 0 68.266667-8.533333 21.333333-4.266667 42.666667-17.066667 51.2-38.4 8.533333-17.066667 8.533333-38.4 0-55.466667v-4.266667h-4.266667c-59.733333 25.6-132.266667 29.866667-200.533333 12.8-119.466667-34.133333-200.533333-140.8-196.266667-251.733333 4.266667-68.266667 34.133333-128 85.333333-170.666667 59.733333-42.666667 140.8-64 221.866667-51.2 76.8 12.8 145.066667 38.4 204.8 85.333334h4.266667v-4.266667c17.066667-81.066667-51.2-115.2-51.2-115.2-46.933333-21.333333-98.133333-34.133333-149.333334-42.666667-123.733333-17.066667-243.2 25.6-320 110.933334C78.39872 238.933333 57.065387 341.333333 82.665387 448c21.333333 72.533333 72.533333 140.8 140.8 183.466667" fill="#4FB4E3" p-id="6438"></path><path d="M688.532053 482.133333c-25.6-38.4-59.733333-68.266667-98.133333-93.866666-85.333333-51.2-187.733333-72.533333-281.6-55.466667-21.333333 4.266667-42.666667 17.066667-51.2 38.4-8.533333 17.066667-8.533333 34.133333 4.266667 55.466667v4.266666h4.266666c59.733333-25.6 132.266667-29.866667 200.533334-12.8 98.133333 29.866667 174.933333 110.933333 192 200.533334 46.933333-29.866667 59.733333-89.6 29.866666-136.533334" fill="#4FB4E3" p-id="6439"></path></svg>