<?xml version="1.0" standalone="no"?><!DOCTYPE svg PUBLIC "-//W3C//DTD SVG 1.1//EN" "http://www.w3.org/Graphics/SVG/1.1/DTD/svg11.dtd"><svg t="1680747425096" class="icon" viewBox="0 0 1024 1024" version="1.1" xmlns="http://www.w3.org/2000/svg" p-id="7335" xmlns:xlink="http://www.w3.org/1999/xlink" width="200" height="200"><path d="M396.8 589.653333c-12.8 0-21.333333 0-34.133333 4.266667-12.8 4.266667-21.333333 8.533333-29.866667 12.8-17.066667 8.533333-29.866667 25.6-42.666667 38.4-8.533333-12.8-25.6-29.866667-42.666666-38.4-8.533333-4.266667-17.066667-8.533333-29.866667-12.8-8.533333-4.266667-21.333333-4.266667-34.133333-4.266667H85.333333v72.533334C85.333333 717.653333 119.466667 764.586667 170.666667 781.653333c4.266667 0 12.8 4.266667 17.066666 4.266667h200.533334c4.266667 0 12.8-4.266667 17.066666-4.266667 51.2-17.066667 85.333333-64 85.333334-119.466666V589.653333H396.8z" fill="#61CFBE" p-id="7336"></path><path d="M264.533333 891.733333c0-34.133333-29.866667-64-64-64h170.666667c-34.133333 0-64 29.866667-64 64v29.866667c0 25.6-21.333333 42.666667-42.666667 42.666667v-72.533334z" fill="#61CFBE" p-id="7337"></path><path d="M925.866667 162.133333c-34.133333-8.533333-59.733333-34.133333-68.266667-68.266666 0-8.533333-8.533333-12.8-12.8-12.8-8.533333 0-12.8 4.266667-12.8 12.8-8.533333 34.133333-34.133333 59.733333-68.266667 68.266666-8.533333 0-12.8 8.533333-12.8 12.8 0 8.533333 4.266667 12.8 12.8 12.8 34.133333 8.533333 59.733333 34.133333 68.266667 68.266667 0 8.533333 8.533333 12.8 12.8 12.8 8.533333 0 12.8-4.266667 12.8-12.8 8.533333-34.133333 34.133333-59.733333 68.266667-68.266667 8.533333 0 12.8-8.533333 12.8-12.8 0-4.266667-8.533333-12.8-12.8-12.8M742.4 268.8c-38.4-8.533333-68.266667-38.4-76.8-76.8 0-8.533333-8.533333-12.8-17.066667-12.8s-12.8 4.266667-17.066666 12.8c-8.533333 38.4-38.4 68.266667-76.8 76.8-8.533333 0-12.8 8.533333-12.8 17.066667s4.266667 17.066667 12.8 17.066666c38.4 8.533333 68.266667 38.4 76.8 76.8 0 8.533333 8.533333 12.8 17.066666 12.8s17.066667-4.266667 17.066667-12.8c8.533333-38.4 38.4-68.266667 76.8-76.8 8.533333 0 12.8-8.533333 12.8-17.066666 0-4.266667-4.266667-12.8-12.8-17.066667" fill="#61CFBE" opacity=".6" p-id="7338"></path><path d="M524.8 93.866667c-12.8 12.8-29.866667 25.6-51.2 29.866666-72.533333 12.8-136.533333 51.2-187.733333 106.666667-51.2 55.466667-85.333333 119.466667-93.866667 196.266667-4.266667 21.333333-17.066667 42.666667-34.133333 51.2-8.533333 4.266667-17.066667 8.533333-29.866667 12.8-4.266667 0-8.533333 0-8.533333 4.266666-4.266667-119.466667 42.666667-234.666667 123.733333-315.733333C324.266667 89.6 435.2 42.666667 554.666667 42.666667c0 4.266667-4.266667 12.8-8.533334 17.066666-4.266667 12.8-12.8 25.6-21.333333 34.133334" fill="#61CFBE" p-id="7339"></path><path d="M667.861333 982.186667v-8.533334-8.533333-8.533333-8.533334c0-4.266667-4.266667-12.8-4.266666-17.066666 0-4.266667-4.266667-12.8-4.266667-17.066667-4.266667-8.533333-4.266667-17.066667-8.533333-29.866667 0-4.266667-4.266667-8.533333-4.266667-12.8 0-4.266667 0-8.533333 4.266667-8.533333s8.533333-4.266667 12.8-4.266667c102.4-29.866667 192-98.133333 247.466666-192C966.528 572.586667 987.861333 465.92 966.528 359.253333l-12.8 12.8-12.8 12.8c-4.266667 4.266667-8.533333 12.8-12.8 17.066667-8.533333 8.533333-8.533333 12.8-12.8 21.333333-4.266667 4.266667-4.266667 12.8-8.533333 21.333334 0 4.266667-4.266667 12.8-4.266667 21.333333s-4.266667 17.066667-4.266667 25.6c0 12.8-4.266667 29.866667-8.533333 42.666667 0 12.8-8.533333 29.866667-12.8 42.666666-4.266667 12.8-12.8 29.866667-21.333333 42.666667-8.533333 12.8-17.066667 29.866667-25.6 42.666667-8.533333 12.8-21.333333 25.6-29.866667 38.4-12.8 8.533333-25.6 21.333333-38.4 29.866666-12.8 12.8-25.6 21.333333-38.4 29.866667-17.066667 4.266667-29.866667 12.8-42.666667 21.333333-12.8 0-21.333333 4.266667-29.866666 8.533334-4.266667 4.266667-12.8-4.266667-8.533334-8.533334 4.266667-8.533333 4.266667-12.8 8.533334-21.333333 0-8.533333 4.266667-17.066667 8.533333-25.6 0-4.266667 4.266667-12.8 4.266667-17.066667 0-4.266667 4.266667-12.8 4.266666-17.066666v-8.533334-8.533333-8.533333-8.533334c-8.533333 8.533333-21.333333 21.333333-34.133333 38.4-29.866667 25.6-72.533333 64-136.533333 115.2-4.266667 4.266667-4.266667 8.533333 0 8.533334 64 51.2 106.666667 89.6 136.533333 115.2 12.8 17.066667 25.6 29.866667 34.133333 38.4" fill="#61CFBE" p-id="7340"></path><path d="M678.4 780.8" fill="#61CFBE" p-id="7341"></path></svg>