<?xml version="1.0" standalone="no"?><!DOCTYPE svg PUBLIC "-//W3C//DTD SVG 1.1//EN" "http://www.w3.org/Graphics/SVG/1.1/DTD/svg11.dtd"><svg t="1680747313757" class="icon" viewBox="0 0 1024 1024" version="1.1" xmlns="http://www.w3.org/2000/svg" p-id="5386" xmlns:xlink="http://www.w3.org/1999/xlink" width="200" height="200"><path d="M704 729.6c-17.066667 12.8-42.666667 12.8-55.466667-4.266667-55.466667-64-110.933333-123.733333-166.4-187.733333-4.266667-8.533333-8.533333-17.066667-8.533333-25.6V123.733333c0-21.333333 17.066667-38.4 38.4-38.4s38.4 17.066667 38.4 38.4v375.466667c51.2 59.733333 106.666667 119.466667 157.866667 174.933333 12.8 17.066667 12.8 38.4-4.266667 55.466667m-119.466667-682.666667C516.266667 38.4 448 42.666667 384 59.733333S256 110.933333 204.8 157.866667C102.4 247.466667 42.666667 375.466667 42.666667 512c0 260.266667 209.066667 469.333333 469.333333 469.333333s469.333333-209.066667 469.333333-469.333333c0-234.666667-170.666667-426.666667-396.8-465.066667" fill="#F9A01E" opacity=".6" p-id="5387"></path></svg>