<?xml version="1.0" standalone="no"?><!DOCTYPE svg PUBLIC "-//W3C//DTD SVG 1.1//EN" "http://www.w3.org/Graphics/SVG/1.1/DTD/svg11.dtd"><svg t="1680747242106" class="icon" viewBox="0 0 1024 1024" version="1.1" xmlns="http://www.w3.org/2000/svg" p-id="4188" xmlns:xlink="http://www.w3.org/1999/xlink" width="200" height="200"><path d="M942.933333 435.2L490.666667 883.2c-59.733333 59.733333-157.866667 59.733333-217.6 0l-64-64L874.666667 153.6 938.666667 217.6c59.733333 59.733333 59.733333 162.133333 0 221.866667" fill="#61CFBE" opacity=".6" p-id="4189"></path><path d="M324.266667 345.6c-34.133333 29.866667-68.266667 64-102.4 93.866667-38.4-29.866667-72.533333-64-106.666667-93.866667-8.533333-8.533333-21.333333-12.8-34.133333-12.8-12.8 0-21.333333 4.266667-29.866667 12.8-4.266667 4.266667-4.266667 8.533333-8.533333 12.8 55.466667 51.2 110.933333 102.4 170.666666 153.6l8.533334 8.533333c55.466667-51.2 110.933333-102.4 170.666666-153.6l8.533334-8.533333c-4.266667-4.266667-8.533333-8.533333-12.8-8.533333-8.533333-12.8-17.066667-17.066667-29.866667-17.066667-12.8 0-21.333333 4.266667-34.133333 12.8M51.2 213.333333s0 4.266667 0 0c4.266667 4.266667 4.266667 4.266667 8.533333 4.266667s4.266667 4.266667 8.533334 4.266667c4.266667 4.266667 12.8 4.266667 17.066666 4.266666h8.533334c4.266667 0 4.266667 0 8.533333-4.266666h4.266667s4.266667 0 4.266666-4.266667c0 0 4.266667 0 4.266667-4.266667 0 0 4.266667 0 4.266667-4.266666l25.6-25.6c4.266667 0 12.8-4.266667 21.333333-12.8 17.066667-17.066667 34.133333-34.133333 51.2-46.933334 38.4 29.866667 72.533333 59.733333 106.666667 93.866667 4.266667 4.266667 12.8 8.533333 17.066666 8.533333 4.266667 0 12.8 4.266667 17.066667 4.266667 4.266667 0 12.8 0 17.066667-4.266667l12.8-12.8c4.266667 0 8.533333-4.266667 8.533333-8.533333l-8.533333-8.533333C337.066667 149.333333 281.6 98.133333 230.4 51.2c-4.266667-4.266667-8.533333-4.266667-8.533333-8.533333-55.466667 51.2-115.2 102.4-170.666667 153.6-4.266667 4.266667-4.266667 8.533333-8.533333 8.533333 4.266667 4.266667 4.266667 8.533333 8.533333 8.533333" fill="#61CFBE" p-id="4190"></path></svg>