<?xml version="1.0" standalone="no"?><!DOCTYPE svg PUBLIC "-//W3C//DTD SVG 1.1//EN" "http://www.w3.org/Graphics/SVG/1.1/DTD/svg11.dtd"><svg t="1680747298477" class="icon" viewBox="0 0 1024 1024" version="1.1" xmlns="http://www.w3.org/2000/svg" p-id="5087" xmlns:xlink="http://www.w3.org/1999/xlink" width="200" height="200"><path d="M516.266667 938.666667h12.8c-8.533333 4.266667-12.8 0-12.8 0zM836.266667 652.8c-21.333333 149.333333-145.066667 268.8-294.4 285.866667 34.133333-8.533333 64-38.4 64-76.8 0-17.066667-4.266667-29.866667-12.8-42.666667 68.266667-25.6 123.733333-89.6 140.8-166.4 4.266667 4.266667 8.533333 8.533333 17.066666 8.533333s17.066667 4.266667 29.866667 4.266667c21.333333 0 38.4-4.266667 55.466667-12.8zM507.733333 221.866667c-98.133333 0-183.466667 64-217.6 157.866666-4.266667-12.8-12.8-21.333333-25.6-21.333333-8.533333-4.266667-17.066667-4.266667-29.866666-4.266667-17.066667 0-34.133333 4.266667-46.933334 8.533334 38.4-140.8 166.4-243.2 320-243.2 149.333333 0 277.333333 102.4 320 247.466666-12.8-4.266667-29.866667-8.533333-46.933333-8.533333-8.533333 0-17.066667 0-25.6 4.266667-12.8 0-21.333333 8.533333-25.6 21.333333-34.133333-98.133333-119.466667-162.133333-221.866667-162.133333z" fill="#4FB4E3" opacity=".6" p-id="5088"></path><path d="M529.066667 942.933333zM605.866667 861.866667c0 38.4-25.6 68.266667-64 76.8H512c-4.266667 0-4.266667 0-8.533333-4.266667-34.133333-8.533333-55.466667-38.4-55.466667-76.8 0-42.666667 34.133333-76.8 76.8-76.8 29.866667 0 51.2 12.8 68.266667 38.4 8.533333 12.8 12.8 29.866667 12.8 42.666667z" fill="#4FB4E3" p-id="5089"></path><path d="M294.4 388.266667v238.933333c0 17.066667-12.8 34.133333-29.866667 34.133333-8.533333 0-17.066667 4.266667-29.866666 4.266667-76.8 0-140.8-72.533333-140.8-157.866667 0-68.266667 38.4-128 93.866666-149.333333 12.8-4.266667 29.866667-8.533333 46.933334-8.533333 8.533333 0 17.066667 0 29.866666 4.266666 12.8 0 21.333333 8.533333 25.6 21.333334 4.266667 4.266667 4.266667 8.533333 4.266667 12.8zM921.6 512c0 64-34.133333 119.466667-81.066667 145.066667-17.066667 8.533333-38.4 12.8-55.466666 12.8-8.533333 0-21.333333 0-29.866667-4.266667-8.533333 0-12.8-4.266667-17.066667-8.533333-8.533333-8.533333-12.8-17.066667-12.8-25.6V392.533333v-17.066666c4.266667-12.8 12.8-21.333333 25.6-21.333334 8.533333 0 17.066667-4.266667 25.6-4.266666 17.066667 0 34.133333 4.266667 46.933334 8.533333 59.733333 25.6 98.133333 85.333333 98.133333 153.6z" fill="#4FB4E3" p-id="5090"></path></svg>