<?xml version="1.0" standalone="no"?><!DOCTYPE svg PUBLIC "-//W3C//DTD SVG 1.1//EN" "http://www.w3.org/Graphics/SVG/1.1/DTD/svg11.dtd"><svg t="1680747339990" class="icon" viewBox="0 0 1024 1024" version="1.1" xmlns="http://www.w3.org/2000/svg" p-id="5834" xmlns:xlink="http://www.w3.org/1999/xlink" width="200" height="200"><path d="M640 337.066667c-8.533333 17.066667-21.333333 25.6-38.4 34.133333h-8.533333-4.266667H576c-17.066667-4.266667-29.866667-17.066667-38.4-34.133333-8.533333-17.066667-8.533333-38.4 0-59.733334l55.466667-81.066666s55.466667 76.8 55.466666 81.066666c0 17.066667 0 38.4-8.533333 59.733334m-93.866667 153.6c-12.8 25.6-34.133333 42.666667-59.733333 46.933333h-21.333333-17.066667c-25.6-8.533333-46.933333-25.6-59.733333-46.933333-12.8-29.866667-12.8-59.733333 0-89.6 0-4.266667 81.066667-119.466667 81.066666-119.466667h8.533334s81.066667 115.2 81.066666 119.466667c0 29.866667 0 59.733333-12.8 89.6M725.333333 42.666667H294.4c-85.333333 0-149.333333 64-149.333333 149.333333v426.666667c0 273.066667 290.133333 452.266667 533.333333 324.266666 59.733333-29.866667 106.666667-76.8 140.8-132.266666 34.133333-55.466667 51.2-123.733333 51.2-187.733334v-426.666666C874.666667 106.666667 806.4 42.666667 725.333333 42.666667" fill="#4FB4E3" p-id="5835"></path></svg>