<?xml version="1.0" standalone="no"?><!DOCTYPE svg PUBLIC "-//W3C//DTD SVG 1.1//EN" "http://www.w3.org/Graphics/SVG/1.1/DTD/svg11.dtd"><svg t="1680747321172" class="icon" viewBox="0 0 1024 1024" version="1.1" xmlns="http://www.w3.org/2000/svg" p-id="5534" xmlns:xlink="http://www.w3.org/1999/xlink" width="200" height="200"><path d="M465.8752 372.266667c-8.533333 55.466667-46.933333 102.4-98.133333 128v8.533333c4.266667 17.066667 4.266667 29.866667 8.533333 46.933333 0 12.8 0 21.333333-8.533333 29.866667 0 8.533333-8.533333 17.066667-21.333334 17.066667H342.141867c0-12.8-4.266667-25.6-4.266667-42.666667-4.266667-12.8-8.533333-29.866667-12.8-42.666667v-4.266666c-46.933333 8.533333-93.866667 0-132.266667-34.133334l-34.133333 34.133334c-17.066667 17.066667-42.666667 17.066667-59.733333 0l64-64c-29.866667-38.4-42.666667-89.6-34.133334-136.533334h-8.533333c-12.8-4.266667-29.866667-8.533333-42.666667-8.533333-25.6-4.266667-38.4-29.866667-34.133333-51.2v-4.266667c12.8 4.266667 25.6 4.266667 42.666667 8.533334s25.6 8.533333 34.133333 8.533333c4.266667 0 8.533333 0 21.333333 4.266667 21.333333-46.933333 68.266667-85.333333 119.466667-93.866667l29.866667 110.933333c12.8 29.866667 34.133333 55.466667 68.266666 59.733334l93.866667 21.333333 12.8 4.266667z" fill="#61CFBE" p-id="5535"></path><path d="M944.424533 514.389333l-396.8 396.8c-55.466667 55.466667-140.8 55.466667-192 0L300.157867 855.722667C492.157867 659.456 688.424533 463.189333 884.6912 266.922667l55.466667 55.466666c55.466667 55.466667 55.466667 145.066667 0 196.266667" fill="#61CFBE" opacity=".6" p-id="5536"></path><path d="M453.0752 277.333333c-12.8-4.266667-29.866667-8.533333-46.933333-12.8l25.6-25.6c29.866667-29.866667 64-59.733333 93.866666-93.866666 17.066667-17.066667 17.066667-42.666667 0-55.466667-42.666667 38.4-81.066667 81.066667-123.733333 119.466667l-25.6 25.6c-8.533333-17.066667-12.8-34.133333-17.066667-51.2-8.533333-38.4-21.333333-72.533333-29.866666-110.933334-4.266667-17.066667-21.333333-29.866667-38.4-29.866666h-12.8-4.266667c12.8 42.666667 25.6 85.333333 34.133333 128 12.8 34.133333 21.333333 68.266667 34.133334 102.4 4.266667 12.8 12.8 25.6 29.866666 25.6 34.133333 8.533333 64 17.066667 98.133334 21.333333 29.866667 8.533333 64 12.8 93.866666 21.333333h8.533334c17.066667 0 34.133333-12.8 38.4-29.866666v-4.266667c-51.2-4.266667-106.666667-17.066667-157.866667-29.866667" fill="#61CFBE" p-id="5537"></path><path d="M564.008533 200.533333h-29.866666c-21.333333 0-42.666667 17.066667-42.666667 42.666667v4.266667h72.533333c21.333333 0 42.666667-17.066667 42.666667-42.666667v-4.266667h-42.666667zM427.4752 115.2V42.666667c-25.6 0-42.666667 17.066667-42.666667 42.666666v72.533334h4.266667c21.333333 0 38.4-21.333333 38.4-42.666667" fill="#61CFBE" p-id="5538"></path></svg>