<?xml version="1.0" standalone="no"?><!DOCTYPE svg PUBLIC "-//W3C//DTD SVG 1.1//EN" "http://www.w3.org/Graphics/SVG/1.1/DTD/svg11.dtd"><svg t="1680747433194" class="icon" viewBox="0 0 1024 1024" version="1.1" xmlns="http://www.w3.org/2000/svg" p-id="7488" xmlns:xlink="http://www.w3.org/1999/xlink" width="200" height="200"><path d="M268.8 526.250667V517.717333c0-4.266667 0-4.266667-4.266667-8.533333 0-4.266667-4.266667-4.266667-4.266666-8.533333L256 496.384l-4.266667-4.266667-4.266666-4.266666h-4.266667-4.266667-4.266666-4.266667-93.866667-4.266666H128h-4.266667-4.266666-4.266667-4.266667c-4.266667 0-4.266667-4.266667-8.533333-4.266667 4.266667-8.533333 0-8.533333 0-8.533333l-4.266667-4.266667-4.266666-4.266667-4.266667-4.266666s0-4.266667-4.266667-4.266667v-4.266667-12.8-12.8c0-4.266667 0-4.266667 4.266667-8.533333v-4.266667s0-4.266667 4.266667-4.266666c0 0 0-4.266667 4.266666-4.266667l4.266667-4.266667 4.266667-4.266666s4.266667 0 4.266666-4.266667c0 0 4.266667 0 4.266667-4.266667 0 0 4.266667 0 4.266667-4.266666H298.666667V376.917333c0-4.266667 0-4.266667-4.266667-8.533333 0-4.266667-4.266667-4.266667-4.266667-8.533333S285.866667 355.584 285.866667 355.584L281.6 351.317333 277.333333 347.050667h-4.266666-4.266667-4.266667-4.266666H128h-8.533333-4.266667-4.266667-4.266666-4.266667-4.266667s-4.266667 0-4.266666 4.266666-4.266667 0-4.266667 4.266667C85.333333 359.850667 81.066667 359.850667 81.066667 364.117333L76.8 368.384S72.533333 368.384 72.533333 372.650667C68.266667 372.650667 64 376.917333 64 381.184 59.733333 381.184 59.733333 385.450667 55.466667 389.717333c0 4.266667-4.266667 8.533333-4.266667 8.533334 0 4.266667-4.266667 8.533333-4.266667 8.533333 0 4.266667 0 8.533333-4.266666 12.8V457.984c0 4.266667 0 8.533333 4.266666 12.8 0 4.266667 4.266667 8.533333 4.266667 8.533333 0 4.266667 4.266667 4.266667 4.266667 8.533334s4.266667 4.266667 4.266666 8.533333l8.533334 8.533333 8.533333 8.533334-4.266667 4.266666-4.266666 4.266667-4.266667 4.266667-4.266667 4.266666c-4.266667 0-4.266667 4.266667-8.533333 8.533334 0 4.266667-4.266667 8.533333-4.266667 12.8 0 8.533333-4.266667 12.8-4.266666 17.066666v25.6c0 4.266667 4.266667 8.533333 4.266666 12.8 0 4.266667 4.266667 8.533333 4.266667 12.8 4.266667 4.266667 4.266667 8.533333 8.533333 12.8l4.266667 4.266667 4.266667 4.266667 4.266666 4.266666 4.266667 4.266667 4.266667 4.266667s4.266667 4.266667 8.533333 4.266666 4.266667 0 8.533333 4.266667c4.266667 0 4.266667 0 8.533334 4.266667h183.466666v-8.533334c0-4.266667 0-4.266667-4.266666-8.533333 0-4.266667-4.266667-4.266667-4.266667-8.533333l-4.266667-4.266667-4.266666-4.266667-4.266667-4.266666h-4.266667-4.266666H256h-4.266667-110.933333-4.266667-4.266666H128h-4.266667-4.266666s-4.266667 0-4.266667-4.266667c0 0-4.266667 0-4.266667-4.266667l-4.266666-4.266666-4.266667-4.266667-4.266667-4.266667-4.266666-4.266666c0-4.266667-4.266667-4.266667-4.266667-8.533334S85.333333 585.984 85.333333 585.984v-12.8V560.384c0-4.266667 0-8.533333 4.266667-8.533333 0 0 0-4.266667 4.266667-4.266667 0 0 0-4.266667 4.266666-4.266667 0 0 0-4.266667 4.266667-4.266666l4.266667-4.266667 4.266666-4.266667 4.266667-4.266666s4.266667 0 4.266667-4.266667c0 0 4.266667 0 4.266666-4.266667h145.066667z" fill="#4FB4E3" p-id="7489"></path><path d="M563.2 413.866667c0 4.266667 4.266667 4.266667 4.266667 8.533333l4.266666 4.266667s4.266667 0 4.266667 4.266666h4.266667c4.266667 0 4.266667 4.266667 8.533333 4.266667s4.266667 0 8.533333 4.266667h25.6c0-8.533333-4.266667-12.8-8.533333-21.333334s-4.266667-12.8-8.533333-17.066666c0-4.266667-4.266667-4.266667-4.266667-8.533334l-8.533333-8.533333-8.533334-8.533333-8.533333-8.533334c-4.266667-4.266667-4.266667-4.266667-8.533333-4.266666s-4.266667-4.266667-8.533334-4.266667-8.533333-4.266667-8.533333-4.266667c-4.266667 0-8.533333-4.266667-8.533333-4.266666h-4.266667-4.266667-4.266666-4.266667-4.266667-17.066666-4.266667-4.266667-4.266666-4.266667-4.266667-4.266666-4.266667-4.266667c-4.266667 0-8.533333 0-8.533333 4.266666-4.266667 0-8.533333 4.266667-8.533333 4.266667-25.6-4.266667-29.866667-4.266667-29.866667 0-4.266667 0-4.266667 4.266667-8.533333 4.266667-8.533333 0-12.8 4.266667-21.333334 8.533333 0 4.266667-4.266667 4.266667-8.533333 8.533333l-4.266667 4.266667c-4.266667 4.266667-4.266667 8.533333-8.533333 8.533333 0 4.266667-4.266667 8.533333-4.266667 8.533334 0 4.266667-4.266667 4.266667-4.266666 8.533333s-4.266667 4.266667-4.266667 8.533333c-4.266667 8.533333-8.533333 12.8-8.533333 17.066667 0 4.266667-4.266667 12.8-4.266667 17.066667-4.266667 4.266667-4.266667 12.8-8.533333 17.066666 0 4.266667 0 12.8-4.266667 17.066667v42.666667c0 8.533333 0 12.8 4.266667 21.333333 4.266667 12.8 4.266667 17.066667 8.533333 25.6 0 8.533333 4.266667 12.8 8.533333 21.333333 0 0 0 4.266667 4.266667 4.266667 0 4.266667 4.266667 8.533333 8.533333 12.8 4.266667 4.266667 8.533333 12.8 12.8 17.066667 0 4.266667 4.266667 4.266667 8.533334 8.533333-4.266667 4.266667-4.266667 4.266667 0 8.533333l8.533333 8.533334c4.266667 0 4.266667 4.266667 8.533333 4.266666s8.533333 4.266667 8.533334 4.266667c4.266667 0 8.533333 4.266667 8.533333 4.266667 4.266667 0 8.533333 4.266667 8.533333 4.266666 4.266667 0 8.533333 0 12.8 4.266667H520.533333c4.266667 0 8.533333-4.266667 12.8-4.266667 4.266667 0 8.533333-4.266667 8.533334-4.266666 4.266667 0 8.533333-4.266667 8.533333-4.266667l4.266667-4.266667 4.266666-4.266666c12.8-8.533333 21.333333-21.333333 29.866667-34.133334 0 0 0-4.266667 4.266667-4.266666v-4.266667-8.533333-8.533334c0-4.266667 0-4.266667-4.266667-8.533333 0-4.266667-4.266667-4.266667-4.266667-8.533333 0 0 0-4.266667-4.266666-4.266667l-4.266667-4.266667-4.266667-4.266666c-4.266667 0-4.266667-4.266667-8.533333-4.266667 0 4.266667-4.266667 12.8-4.266667 17.066667 0 4.266667 0 4.266667-4.266666 8.533333 0 4.266667-4.266667 4.266667-4.266667 8.533333s-4.266667 4.266667-4.266667 8.533334-4.266667 4.266667-4.266666 8.533333l-12.8 12.8c-4.266667 0-4.266667 4.266667-8.533334 4.266667 0 0-4.266667 0-4.266666 4.266666H512c-4.266667 0-4.266667 4.266667-8.533333 4.266667s-4.266667 0-8.533334 4.266667h-4.266666-4.266667-4.266667-4.266666-4.266667-4.266667-4.266666-29.866667-4.266667-4.266666c29.866667-4.266667 25.6-4.266667 25.6-4.266667-4.266667 0-4.266667 0-8.533334-4.266667-4.266667 0-4.266667 0-8.533333-4.266666-4.266667 0-4.266667-4.266667-8.533333-4.266667l-4.266667-4.266667-4.266667-4.266666-4.266666-4.266667-4.266667-4.266667c-4.266667-4.266667-4.266667-8.533333-8.533333-12.8v-4.266666c-4.266667 0-4.266667-4.266667-8.533334-12.8 0-4.266667-4.266667-8.533333-4.266666-17.066667-4.266667-4.266667-4.266667-12.8-4.266667-17.066667v-17.066666-17.066667-21.333333c0-12.8 4.266667-29.866667 8.533333-42.666667 0-4.266667 4.266667-8.533333 4.266667-12.8 0-4.266667 4.266667-8.533333 4.266667-8.533333 0-4.266667 4.266667-4.266667 4.266666-4.266667l4.266667-4.266667 4.266667-4.266666c4.266667-8.533333 8.533333-12.8 12.8-17.066667 0 0 4.266667 0 4.266666-4.266667 0 0 4.266667 0 4.266667-4.266666 4.266667 0 4.266667-4.266667 8.533333-4.266667s4.266667-4.266667 8.533334-4.266667c0 4.266667 0 4.266667 4.266666 4.266667h68.266667c4.266667 0 4.266667 0 8.533333 4.266667 4.266667 0 4.266667 0 8.533334 4.266666 4.266667 0 4.266667 4.266667 4.266666 4.266667l4.266667 4.266667s8.533333 4.266667 12.8 12.8" fill="#4FB4E3" p-id="7490"></path><path d="M891.733333 622.933333l12.8 12.8h17.066667s4.266667 0 4.266667-4.266666c4.266667 0 4.266667-4.266667 4.266666-4.266667 4.266667-4.266667 4.266667-8.533333 8.533334-12.8 4.266667-4.266667 4.266667-8.533333 8.533333-12.8 4.266667-8.533333 8.533333-12.8 8.533333-21.333333 4.266667-8.533333 4.266667-17.066667 4.266667-25.6 0-8.533333 4.266667-12.8 4.266667-21.333334V512c0-29.866667-4.266667-59.733333-17.066667-89.6-4.266667-4.266667-8.533333-12.8-8.533333-17.066667-4.266667-4.266667-8.533333-12.8-12.8-17.066666 8.533333 0 8.533333-4.266667 4.266666-4.266667l-8.533333-8.533333c-4.266667-4.266667-4.266667-4.266667-8.533333-4.266667s-4.266667-4.266667-8.533334-4.266667-4.266667-4.266667-8.533333-4.266666-8.533333-4.266667-8.533333-4.266667c-4.266667 0-8.533333-4.266667-8.533334-4.266667-4.266667 0-8.533333-4.266667-8.533333-4.266666h-4.266667-4.266666-4.266667-4.266667-4.266666H823.466667C814.933333 341.333333 810.666667 341.333333 810.666667 341.333333h-17.066667c-4.266667 0-8.533333 0-17.066667 4.266667-4.266667 0-4.266667 0-8.533333 4.266667-4.266667 0-4.266667 0-8.533333 4.266666-4.266667 0-8.533333 4.266667-12.8 8.533334-4.266667 4.266667-8.533333 4.266667-12.8 8.533333-4.266667 0-4.266667 4.266667-4.266667 4.266667l-4.266667 4.266666-4.266666 4.266667-4.266667 4.266667c-4.266667 4.266667-8.533333 8.533333-8.533333 12.8l-4.266667 4.266666c0 4.266667-4.266667 4.266667-4.266667 8.533334-8.533333 4.266667-12.8 8.533333-17.066666 12.8-4.266667 4.266667-4.266667 8.533333-4.266667 12.8 0 4.266667-4.266667 8.533333-4.266667 12.8 0 4.266667-4.266667 8.533333-4.266666 17.066666s-4.266667 21.333333-4.266667 29.866667v17.066667c0 21.333333 4.266667 42.666667 12.8 64 0 4.266667 4.266667 12.8 8.533333 17.066666 4.266667 4.266667 8.533333 12.8 8.533334 17.066667 4.266667 4.266667 8.533333 12.8 12.8 17.066667l8.533333 8.533333 8.533333 8.533333 8.533334 8.533334c4.266667 0 4.266667 4.266667 8.533333 4.266666s4.266667 4.266667 8.533333 4.266667 8.533333 4.266667 8.533334 4.266667c4.266667 0 8.533333 4.266667 8.533333 4.266666 4.266667 0 8.533333 4.266667 8.533333 4.266667H844.8c4.266667 0 8.533333 0 12.8-4.266667h17.066667c0-4.266667-4.266667-4.266667-4.266667-4.266666l-4.266667-4.266667-4.266666-4.266667s-4.266667-4.266667-8.533334-4.266666h-4.266666-4.266667-4.266667-4.266666-4.266667-17.066667-4.266666-4.266667-4.266667-4.266666-4.266667-4.266667-4.266666s-4.266667 0-4.266667-4.266667c0 0-4.266667 0-4.266667-4.266667-4.266667 0-8.533333-4.266667-8.533333-4.266666l-8.533333-8.533334-8.533334-8.533333c-4.266667-4.266667-4.266667-8.533333-8.533333-8.533333-4.266667-4.266667-4.266667-8.533333-8.533333-12.8-8.533333-21.333333-8.533333-25.6-12.8-29.866667 0-4.266667-4.266667-4.266667-4.266667-8.533333-4.266667-8.533333-4.266667-17.066667-4.266667-25.6v-25.6-12.8c0-8.533333 0-17.066667 4.266667-25.6 0-4.266667 0-8.533333 4.266667-12.8 0-4.266667 0-8.533333 4.266666-12.8 0-4.266667 4.266667-8.533333 4.266667-12.8 0-4.266667 4.266667-8.533333 4.266667-12.8 4.266667-8.533333 8.533333-12.8 17.066666-21.333334l8.533334-8.533333 4.266666-4.266667 4.266667-4.266666c4.266667 0 4.266667-4.266667 8.533333-4.266667s8.533333-4.266667 8.533334-4.266667h8.533333c4.266667 0 8.533333 0 12.8-4.266666H853.333333V384c4.266667 0 4.266667 0 8.533334 4.266667 4.266667 0 4.266667 0 8.533333 4.266666 4.266667 0 4.266667 4.266667 8.533333 4.266667s4.266667 4.266667 8.533334 4.266667 4.266667 4.266667 8.533333 4.266666l4.266667 4.266667 4.266666 4.266667 4.266667 4.266666c4.266667 4.266667 4.266667 8.533333 8.533333 12.8 4.266667 4.266667 4.266667 8.533333 8.533334 12.8 4.266667 4.266667 4.266667 12.8 4.266666 17.066667 0 4.266667 4.266667 12.8 4.266667 17.066667 0 4.266667 0 12.8 4.266667 17.066666v42.666667c0 8.533333 0 12.8-4.266667 21.333333v4.266667c0 4.266667-4.266667 8.533333-4.266667 12.8 0 4.266667-4.266667 8.533333-4.266666 12.8l-4.266667 4.266667-4.266667 4.266666-4.266666 4.266667-4.266667 4.266667-8.533333 8.533333-8.533334 8.533333" fill="#4FB4E3" opacity=".6" p-id="7491"></path></svg>