<?xml version="1.0" standalone="no"?><!DOCTYPE svg PUBLIC "-//W3C//DTD SVG 1.1//EN" "http://www.w3.org/Graphics/SVG/1.1/DTD/svg11.dtd"><svg t="1680747251894" class="icon" viewBox="0 0 1024 1024" version="1.1" xmlns="http://www.w3.org/2000/svg" p-id="4337" xmlns:xlink="http://www.w3.org/1999/xlink" width="200" height="200"><path d="M874.666667 553.386667c-8.533333 29.866667-17.066667 55.466667-21.333334 85.333333-4.266667-4.266667-12.8-8.533333-17.066666-12.8h-4.266667c-17.066667-8.533333-34.133333-12.8-51.2-12.8h-21.333333c-12.8 0-21.333333 0-34.133334 4.266667-17.066667 4.266667-34.133333 12.8-51.2 21.333333-17.066667 12.8-29.866667 25.6-42.666666 42.666667-4.266667 8.533333-8.533333 12.8-12.8 21.333333-4.266667 8.533333-4.266667 17.066667-8.533334 25.6 0 8.533333-4.266667 17.066667-4.266666 25.6v21.333333c0 12.8 8.533333 29.866667 12.8 42.666667 8.533333 17.066667 17.066667 29.866667 29.866666 42.666667 8.533333 8.533333 21.333333 17.066667 34.133334 25.6h4.266666c-12.8 4.266667-25.6 12.8-34.133333 25.6l-21.333333 29.866666 29.866666 21.333334c8.533333 4.266667 17.066667 12.8 25.6 17.066666H341.333333C256 980.053333 187.733333 911.786667 183.466667 830.72 179.2 736.853333 174.933333 647.253333 170.666667 553.386667h704z" fill="#4FB4E3" p-id="4338"></path><path d="M187.861333 499.2s-4.266667 0-4.266666 4.266667c-4.266667 4.266667-12.8 0-12.8-8.533334V42.666667c4.266667 4.266667 12.8 4.266667 17.066666 8.533333 29.866667 17.066667 51.2 46.933333 51.2 76.8v290.133333c0 34.133333-21.333333 64-51.2 81.066667" fill="#4FB4E3" p-id="4339"></path><path d="M742.4 780.8c12.8-4.266667 21.333333-8.533333 34.133333-8.533333 8.533333 0 17.066667 0 25.6 4.266666 4.266667 0 8.533333 4.266667 12.8 4.266667 17.066667 8.533333 29.866667 21.333333 38.4 34.133333h38.4c-4.266667-12.8-8.533333-21.333333-17.066666-29.866666l-25.6-25.6c-8.533333-4.266667-12.8-8.533333-21.333334-12.8-4.266667 0-8.533333-4.266667-12.8-4.266667-12.8-4.266667-21.333333-4.266667-34.133333-4.266667h-8.533333c-25.6 4.266667-38.4 25.6-29.866667 42.666667M857.6 870.4c-4.266667 12.8-12.8 25.6-21.333333 34.133333-17.066667 12.8-34.133333 17.066667-55.466667 17.066667h-21.333333c-8.533333 0-17.066667-4.266667-25.6-8.533333-4.266667 0-8.533333-4.266667-17.066667-4.266667-12.8 0-25.6 4.266667-29.866667 17.066667 12.8 8.533333 25.6 17.066667 38.4 21.333333 4.266667 0 4.266667 0 8.533334 4.266667 4.266667 0 8.533333 4.266667 12.8 4.266666 8.533333 0 12.8 4.266667 21.333333 4.266667H793.6c8.533333 0 17.066667 0 25.6-4.266667 4.266667 0 8.533333-4.266667 12.8-4.266666 4.266667 0 8.533333-4.266667 12.8-4.266667 8.533333-4.266667 12.8-8.533333 21.333333-12.8 12.8-8.533333 21.333333-21.333333 25.6-34.133333 8.533333-12.8 8.533333-29.866667 12.8-42.666667l-46.933333 12.8z" fill="#4FB4E3" opacity=".7" p-id="4340"></path><path d="M819.2 657.066667c-17.066667-8.533333-29.866667-8.533333-42.666667-12.8h-17.066666c-8.533333 0-17.066667 0-25.6 4.266666-12.8 4.266667-29.866667 8.533333-38.4 17.066667-12.8 8.533333-25.6 21.333333-34.133334 34.133333-4.266667 4.266667-4.266667 12.8-8.533333 17.066667-4.266667 4.266667-4.266667 12.8-4.266667 17.066667v34.133333c0 12.8 4.266667 21.333333 8.533334 29.866667 4.266667 12.8 12.8 25.6 25.6 34.133333 8.533333 8.533333 17.066667 12.8 25.6 17.066667 8.533333 4.266667 21.333333 8.533333 34.133333 12.8 8.533333 0 17.066667 4.266667 25.6 4.266666h12.8c4.266667 0 12.8 0 17.066667-4.266666 8.533333 0 12.8-4.266667 17.066666-4.266667-4.266667-8.533333-8.533333-12.8-12.8-17.066667-8.533333-4.266667-17.066667-8.533333-25.6-8.533333H763.733333c-8.533333 0-17.066667 0-25.6-4.266667h-4.266666c-4.266667 0-12.8-4.266667-17.066667-8.533333h-4.266667s-4.266667 0-4.266666-4.266667c-4.266667 0-4.266667-4.266667-4.266667-4.266666l-4.266667-4.266667-8.533333-8.533333c-4.266667-4.266667-4.266667-8.533333-8.533333-8.533334 0-4.266667-4.266667-4.266667-4.266667-8.533333v-4.266667c0-4.266667 0-4.266667-4.266667-8.533333v-4.266667-12.8c0-21.333333 8.533333-38.4 25.6-51.2 12.8-12.8 34.133333-17.066667 55.466667-17.066666h12.8c21.333333 4.266667 42.666667 12.8 64 25.6 0 0 0-4.266667 4.266667-4.266667 0-4.266667 4.266667-8.533333 4.266666-12.8 0-17.066667-8.533333-29.866667-21.333333-34.133333" fill="#4FB4E3" opacity=".7" p-id="4341"></path><path d="M780.8 409.6c-128 21.333333-256 46.933333-384 68.266667-34.133333 4.266667-68.266667-8.533333-89.6-34.133334l-12.8-12.8c187.733333-34.133333 375.466667-68.266667 567.466667-102.4 0 4.266667-4.266667 12.8-4.266667 17.066667-12.8 29.866667-42.666667 55.466667-76.8 64" fill="#4FB4E3" p-id="4342"></path></svg>