<?xml version="1.0" standalone="no"?><!DOCTYPE svg PUBLIC "-//W3C//DTD SVG 1.1//EN" "http://www.w3.org/Graphics/SVG/1.1/DTD/svg11.dtd"><svg t="1680747112937" class="icon" viewBox="0 0 1024 1024" version="1.1" xmlns="http://www.w3.org/2000/svg" p-id="2244" xmlns:xlink="http://www.w3.org/1999/xlink" width="200" height="200"><path d="M519.68 148.48h-10.24c-138.24 0-250.88 112.64-250.88 250.88s112.64 250.88 250.88 250.88c33.28 0 69.12-7.68 97.28-23.04 20.48-10.24 35.84-28.16 35.84-51.2 0 0 0-12.8-10.24-23.04-35.84 28.16-76.8 43.52-122.88 43.52-107.52 0-197.12-89.6-197.12-197.12s89.6-197.12 197.12-197.12h12.8c99.84 0 181.76 40.96 238.08 110.08 7.68-10.24 7.68-30.72 7.68-30.72 0-25.6-10.24-43.52-30.72-61.44-58.88-48.64-135.68-71.68-217.6-71.68" fill="#FFFFFF" p-id="2245"></path><path d="M522.24 325.12c156.16 2.56 279.04 128 276.48 291.84v10.24c10.24 0 20.48-7.68 20.48-7.68 23.04-23.04 25.6-53.76 23.04-84.48-10.24-92.16-64-166.4-135.68-212.48-51.2-33.28-81.92-46.08-140.8-51.2-94.72-5.12-107.52 46.08-102.4 61.44 17.92-5.12 40.96-7.68 58.88-7.68" fill="#FFFFFF" opacity=".6" p-id="2246"></path><path d="M504.32 875.52h12.8c138.24 0 250.88-112.64 250.88-250.88s-112.64-250.88-250.88-250.88c-33.28 0-69.12 7.68-97.28 23.04-20.48 10.24-35.84 28.16-35.84 51.2 0 0 0 12.8 10.24 23.04 35.84-28.16 76.8-43.52 122.88-43.52 107.52 0 197.12 89.6 197.12 197.12s-89.6 197.12-197.12 197.12h-10.24c-99.84 0-181.76-40.96-238.08-110.08-12.8 10.24-12.8 30.72-12.8 30.72 0 25.6 10.24 43.52 30.72 61.44 58.88 48.64 135.68 71.68 217.6 71.68" fill="#FFFFFF" p-id="2247"></path><path d="M501.76 698.88c-156.16-2.56-279.04-128-276.48-291.84v-10.24c-10.24 0-20.48 7.68-20.48 7.68-23.04 23.04-25.6 53.76-23.04 84.48 10.24 92.16 64 166.4 135.68 212.48 51.2 33.28 81.92 46.08 140.8 51.2 94.72 5.12 107.52-46.08 102.4-61.44-17.92 5.12-40.96 7.68-58.88 7.68" fill="#FFFFFF" opacity=".6" p-id="2248"></path></svg>