<?xml version="1.0" standalone="no"?><!DOCTYPE svg PUBLIC "-//W3C//DTD SVG 1.1//EN" "http://www.w3.org/Graphics/SVG/1.1/DTD/svg11.dtd"><svg t="1680747357005" class="icon" viewBox="0 0 1024 1024" version="1.1" xmlns="http://www.w3.org/2000/svg" p-id="6133" xmlns:xlink="http://www.w3.org/1999/xlink" width="200" height="200"><path d="M820.608 727.296C782.208 688.896 748.074667 650.496 709.674667 616.362667c-34.133333-34.133333-89.6-34.133333-119.466667 0-38.4 34.133333-76.8 72.533333-110.933333 110.933333C445.141333 761.429333 445.141333 816.896 479.274667 846.762667l110.933333 110.933333c34.133333 34.133333 89.6 34.133333 119.466667 0L820.608 846.762667c34.133333-34.133333 34.133333-89.6 0-119.466667" fill="#4FB4E3" p-id="6134"></path><path d="M820.608 179.2C782.208 140.8 748.074667 102.4 709.674667 68.266667c-34.133333-34.133333-89.6-34.133333-119.466667 0-38.4 34.133333-76.8 72.533333-110.933333 110.933333C445.141333 213.333333 445.141333 268.8 479.274667 298.666667l110.933333 110.933333c34.133333 34.133333 89.6 34.133333 119.466667 0L820.608 298.666667c34.133333-34.133333 34.133333-89.6 0-119.466667" fill="#4FB4E3" p-id="6135"></path><path d="M546.56 452.266667L435.626667 341.333333c-34.133333-34.133333-89.6-34.133333-119.466667 0-38.4 38.4-76.8 72.533333-110.933333 110.933334-34.133333 34.133333-34.133333 89.6 0 119.466666l110.933333 110.933334c34.133333 34.133333 89.6 34.133333 119.466667 0l110.933333-110.933334c29.866667-34.133333 29.866667-85.333333 0-119.466666" fill="#4FB4E3" p-id="6136"></path></svg>