<?xml version="1.0" standalone="no"?><!DOCTYPE svg PUBLIC "-//W3C//DTD SVG 1.1//EN" "http://www.w3.org/Graphics/SVG/1.1/DTD/svg11.dtd"><svg t="1680747146661" class="icon" viewBox="0 0 1024 1024" version="1.1" xmlns="http://www.w3.org/2000/svg" p-id="2695" xmlns:xlink="http://www.w3.org/1999/xlink" width="200" height="200"><path d="M279.04 478.72c23.04-7.68 46.08-7.68 69.12 0 46.08 15.36 99.84 5.12 135.68-30.72 25.6-25.6 38.4-61.44 38.4-97.28-2.56-33.28-17.92-66.56-40.96-89.6l-112.64-112.64c20.48-20.48 53.76-20.48 74.24 0l74.24 74.24c33.28 33.28 56.32 79.36 56.32 128 0 51.2-17.92 97.28-53.76 133.12-35.84 35.84-81.92 53.76-128 53.76-46.08 0-92.16-17.92-128-53.76l15.36-5.12z" fill="#000" opacity="0.4" p-id="2696"></path><path d="M552.96 509.44c10.24-15.36 25.6-23.04 40.96-25.6 30.72-2.56 61.44-15.36 81.92-38.4 25.6-25.6 38.4-61.44 38.4-97.28-2.56-33.28-17.92-66.56-40.96-89.6L563.2 148.48c20.48-20.48 53.76-20.48 74.24 0l74.24 74.24c33.28 33.28 56.32 79.36 56.32 128 0 51.2-17.92 97.28-53.76 133.12-33.28 33.28-81.92 53.76-128 53.76-15.36 0-30.72-2.56-46.08-5.12l12.8-23.04z" fill="#000" opacity="0.4" p-id="2697"></path><path d="M363.52 588.8c17.92-23.04 51.2-28.16 74.24-12.8l43.52 30.72c-17.92 23.04-51.2 28.16-74.24 12.8L363.52 588.8zM253.44 622.08c17.92-23.04 51.2-28.16 74.24-12.8l43.52 30.72c-17.92 23.04-51.2 28.16-74.24 12.8l-43.52-30.72zM668.16 588.8c-17.92-23.04-51.2-28.16-74.24-12.8l-43.52 30.72c17.92 23.04 51.2 28.16 74.24 12.8l43.52-30.72zM778.24 622.08c-17.92-23.04-51.2-28.16-74.24-12.8L660.48 640c17.92 23.04 51.2 28.16 74.24 12.8l43.52-30.72zM550.4 744.96c-30.72 0-53.76-23.04-53.76-53.76v-64c30.72 0 53.76 23.04 53.76 53.76v64zM550.4 890.88c-30.72 0-53.76-23.04-53.76-53.76v-64c30.72 0 53.76 23.04 53.76 53.76v64z" fill="#000" opacity=".2" p-id="2698"></path></svg>