<?xml version="1.0" standalone="no"?><!DOCTYPE svg PUBLIC "-//W3C//DTD SVG 1.1//EN" "http://www.w3.org/Graphics/SVG/1.1/DTD/svg11.dtd"><svg t="1684393120418" class="icon" viewBox="0 0 1024 1024" version="1.1" xmlns="http://www.w3.org/2000/svg" p-id="2340" xmlns:xlink="http://www.w3.org/1999/xlink" width="200" height="200"><path d="M746.666667 388.266667c-119.466667 21.333333-243.2 42.666667-362.666667 64-34.133333 4.266667-68.266667-4.266667-85.333333-29.866667-4.266667-4.266667-8.533333-12.8-12.8-17.066667C465.066667 371.2 640 341.333333 819.2 307.2c0 4.266667-4.266667 12.8-4.266667 17.066667-8.533333 34.133333-38.4 55.466667-68.266666 64M187.733333 473.6s-4.266667 0-4.266666 4.266667c-4.266667 0-12.8-4.266667-12.8-8.533334V42.666667c4.266667 4.266667 12.8 4.266667 17.066666 8.533333 29.866667 12.8 46.933333 42.666667 46.933334 72.533333v273.066667c0 34.133333-17.066667 64-46.933334 76.8M682.666667 588.8c-8.533333 0-21.333333-4.266667-29.866667-4.266667-17.066667 0-34.133333 4.266667-51.2 8.533334-25.6 8.533333-51.2 21.333333-68.266667 38.4-38.4 34.133333-64 85.333333-64 140.8 0 102.4 81.066667 183.466667 183.466667 183.466666s183.466667-81.066667 183.466667-183.466666c4.266667-93.866667-64-170.666667-153.6-183.466667z" fill="#4FB4E3" p-id="2341"></path><path d="M435.2 772.266667c0-64 25.6-123.733333 72.533333-162.133334 25.6-21.333333 51.2-38.4 81.066667-46.933333 21.333333-4.266667 38.4-8.533333 59.733333-8.533333 12.8 0 21.333333 0 34.133334 4.266666 46.933333 8.533333 89.6 29.866667 119.466666 64 8.533333-29.866667 17.066667-64 25.6-93.866666H170.666667c4.266667 85.333333 8.533333 174.933333 12.8 260.266666 4.266667 81.066667 68.266667 140.8 149.333333 140.8h174.933333c-42.666667-42.666667-72.533333-98.133333-72.533333-157.866666z" fill="#4FB4E3" p-id="2342"></path><path d="M755.2 819.2c12.8-55.466667 29.866667-106.666667 42.666667-162.133333-29.866667-34.133333-68.266667-59.733333-115.2-68.266667-8.533333 0-21.333333-4.266667-29.866667-4.266667-17.066667 0-34.133333 4.266667-51.2 8.533334-25.6 8.533333-51.2 21.333333-68.266667 38.4-38.4 34.133333-64 85.333333-64 140.8 0 68.266667 34.133333 123.733333 89.6 157.866666h51.2c68.266667-4.266667 128-46.933333 145.066667-110.933333z" fill="#4FB4E3" p-id="2343"></path><path d="M640 772.266667c0 4.266667 0 8.533333 4.266667 8.533333 21.333333 25.6 42.666667 51.2 64 72.533333 4.266667 4.266667 17.066667 8.533333 21.333333 0 4.266667-4.266667 8.533333-17.066667 0-21.333333-21.333333-21.333333-42.666667-46.933333-59.733333-68.266667v-145.066666c0-8.533333-8.533333-17.066667-17.066667-17.066667s-12.8 8.533333-12.8 17.066667v153.6z" fill="#FFFFFF" p-id="2344"></path></svg>