<?xml version="1.0" standalone="no"?><!DOCTYPE svg PUBLIC "-//W3C//DTD SVG 1.1//EN" "http://www.w3.org/Graphics/SVG/1.1/DTD/svg11.dtd"><svg t="1680747393484" class="icon" viewBox="0 0 1024 1024" version="1.1" xmlns="http://www.w3.org/2000/svg" p-id="6736" xmlns:xlink="http://www.w3.org/1999/xlink" width="200" height="200"><path d="M945.066667 519.381333l-405.333334 405.333334a141.653333 141.653333 0 0 1-200.533333 0L279.466667 864.981333C480 668.714667 680.533333 468.181333 881.066667 267.648l55.466666 55.466667c55.466667 55.466667 55.466667 145.066667 0 204.8" fill="#61CFBE" opacity=".6" p-id="6737"></path><path d="M145.066667 448V285.866667c0-12.8-12.8-25.6-25.6-25.6s-25.6 12.8-25.6 25.6V426.666667C68.266667 426.666667 42.666667 401.066667 42.666667 371.2V290.133333c0-42.666667 34.133333-81.066667 76.8-85.333333 46.933333-4.266667 85.333333 34.133333 85.333333 81.066667v162.133333c0 12.8 12.8 25.6 25.6 25.6s25.6-12.8 25.6-25.6V166.4C251.733333 128 277.333333 93.866667 315.733333 85.333333c51.2-8.533333 98.133333 29.866667 98.133334 76.8v213.333334c0 12.8 12.8 25.6 25.6 25.6s25.6-12.8 25.6-25.6v-128c29.866667 0 55.466667 25.6 55.466666 55.466666v72.533334c0 38.4-25.6 72.533333-64 81.066666-55.466667 8.533333-102.4-29.866667-102.4-76.8v-213.333333c0-12.8-12.8-25.6-25.6-25.6s-25.6 12.8-25.6 25.6v285.866667c0 51.2-46.933333 89.6-98.133333 76.8-29.866667-8.533333-59.733333-42.666667-59.733333-81.066667z" fill="#61CFBE" p-id="6738"></path></svg>