<?xml version="1.0" standalone="no"?><!DOCTYPE svg PUBLIC "-//W3C//DTD SVG 1.1//EN" "http://www.w3.org/Graphics/SVG/1.1/DTD/svg11.dtd"><svg t="1684393144519" class="icon" viewBox="0 0 1024 1024" version="1.1" xmlns="http://www.w3.org/2000/svg" p-id="2491" xmlns:xlink="http://www.w3.org/1999/xlink" width="200" height="200"><path d="M635.733333 460.8c17.066667-4.266667 38.4-8.533333 55.466667-8.533333 12.8 0 25.6 0 38.4 4.266666 0 0 0-4.266667-4.266667-4.266666-21.333333-34.133333-55.466667-64-89.6-85.333334-81.066667-51.2-174.933333-72.533333-264.533333-55.466666-21.333333 4.266667-34.133333 17.066667-42.666667 34.133333-8.533333 17.066667-8.533333 34.133333 0 51.2v4.266667h4.266667c55.466667-25.6 123.733333-29.866667 183.466667-8.533334 46.933333 8.533333 85.333333 34.133333 119.466666 68.266667z" fill="#4FB4E3" p-id="2492"></path><path d="M473.6 576c-21.333333 0-42.666667-4.266667-64-8.533333-110.933333-29.866667-183.466667-128-183.466667-234.666667 4.266667-64 34.133333-119.466667 85.333334-162.133333 55.466667-46.933333 132.266667-68.266667 204.8-55.466667 72.533333 8.533333 136.533333 38.4 192 76.8h4.266666v-4.266667c17.066667-72.533333-46.933333-102.4-46.933333-102.4-42.666667-21.333333-89.6-34.133333-140.8-38.4-115.2-17.066667-226.133333 21.333333-298.666667 102.4-64 72.533333-89.6 170.666667-64 268.8 17.066667 72.533333 64 132.266667 132.266667 174.933334 46.933333 29.866667 102.4 46.933333 153.6 55.466666 4.266667-29.866667 17.066667-51.2 25.6-72.533333z" fill="#4FB4E3" p-id="2493"></path><path d="M776.533333 320c-55.466667-72.533333-132.266667-119.466667-226.133333-136.533333-12.8-4.266667-25.6-4.266667-46.933333-4.266667-12.8 0-38.4 0-51.2 21.333333-8.533333 12.8-8.533333 29.866667 0 51.2V256h4.266666c29.866667-4.266667 93.866667-8.533333 162.133334 25.6 59.733333 34.133333 106.666667 64 153.6 153.6v4.266667s4.266667 0 4.266666-4.266667c17.066667-12.8 21.333333-34.133333 25.6-34.133333 0-25.6-8.533333-55.466667-25.6-81.066667M482.133333 836.266667c-21.333333 4.266667-46.933333 4.266667-72.533333 0-72.533333-8.533333-132.266667-34.133333-187.733333-76.8 0 0-4.266667 0-4.266667-4.266667l-4.266667 4.266667c-17.066667 72.533333 46.933333 102.4 51.2 102.4 42.666667 21.333333 89.6 34.133333 140.8 38.4 17.066667 4.266667 34.133333 4.266667 51.2 4.266666 29.866667 0 59.733333-4.266667 89.6-12.8-25.6-8.533333-46.933333-29.866667-64-55.466666zM443.733333 704c-34.133333 0-81.066667-4.266667-132.266666-29.866667-59.733333-34.133333-106.666667-64-153.6-153.6v-4.266666s-4.266667 0-4.266667 4.266666c-21.333333 8.533333-25.6 29.866667-25.6 29.866667-4.266667 25.6 4.266667 59.733333 21.333333 81.066667 55.466667 72.533333 132.266667 119.466667 226.133334 136.533333 12.8 4.266667 25.6 4.266667 46.933333 4.266667 4.266667 0 17.066667 0 29.866667-4.266667-4.266667-17.066667-8.533333-42.666667-8.533334-64zM725.333333 490.666667c-12.8 0-21.333333-4.266667-34.133333-4.266667-21.333333 0-38.4 4.266667-59.733333 8.533333-29.866667 8.533333-55.466667 21.333333-81.066667 42.666667-46.933333 38.4-72.533333 98.133333-72.533333 157.866667 0 115.2 93.866667 209.066667 209.066666 209.066666S896 810.666667 896 695.466667c4.266667-98.133333-72.533333-187.733333-170.666667-204.8z m51.2 307.2c-8.533333 8.533333-17.066667 4.266667-25.6 0-25.6-29.866667-51.2-55.466667-76.8-85.333334-4.266667-4.266667-4.266667-8.533333-4.266666-12.8v-174.933333c0-8.533333 8.533333-17.066667 17.066666-17.066667s17.066667 8.533333 17.066667 17.066667v166.4c25.6 25.6 46.933333 51.2 72.533333 81.066667 8.533333 8.533333 8.533333 17.066667 0 25.6z" fill="#4FB4E3" p-id="2494"></path></svg>