<?xml version="1.0" standalone="no"?><!DOCTYPE svg PUBLIC "-//W3C//DTD SVG 1.1//EN" "http://www.w3.org/Graphics/SVG/1.1/DTD/svg11.dtd"><svg t="1680747232979" class="icon" viewBox="0 0 1024 1024" version="1.1" xmlns="http://www.w3.org/2000/svg" p-id="4040" xmlns:xlink="http://www.w3.org/1999/xlink" width="200" height="200"><path d="M981.333333 546.133333v-4.266666c0-21.333333-8.533333-38.4-21.333333-51.2-12.8-12.8-34.133333-21.333333-51.2-21.333334h-85.333333v4.266667c-8.533333-59.733333-29.866667-110.933333-64-153.6l110.933333-110.933333s-4.266667 0-4.266667-4.266667c-12.8-12.8-34.133333-21.333333-51.2-21.333333-21.333333 0-38.4 8.533333-51.2 21.333333-17.066667 21.333333-38.4 38.4-55.466666 59.733333-42.666667-29.866667-93.866667-51.2-149.333334-59.733333V46.933333H554.666667c-21.333333 0-38.4 8.533333-51.2 21.333334-12.8 12.8-21.333333 34.133333-21.333334 51.2v85.333333c-64 8.533333-115.2 29.866667-157.866666 59.733333L213.333333 153.6l-4.266666 4.266667c-12.8 12.8-21.333333 34.133333-21.333334 51.2 0 21.333333 8.533333 38.4 21.333334 51.2l55.466666 55.466666c-34.133333 42.666667-55.466667 93.866667-64 153.6H42.666667v4.266667c0 21.333333 8.533333 38.4 21.333333 51.2 12.8 12.8 34.133333 21.333333 51.2 21.333333h81.066667c4.266667 59.733333 29.866667 110.933333 59.733333 153.6-34.133333 38.4-72.533333 72.533333-106.666667 110.933334l4.266667 4.266666c12.8 12.8 34.133333 21.333333 51.2 21.333334 21.333333 0 38.4-8.533333 51.2-21.333334l55.466667-55.466666c42.666667 34.133333 98.133333 59.733333 153.6 64v153.6h4.266666c21.333333 0 38.4-8.533333 51.2-21.333334 12.8-12.8 21.333333-34.133333 21.333334-51.2v-76.8c59.733333-8.533333 110.933333-29.866667 153.6-64 38.4 34.133333 72.533333 72.533333 110.933333 106.666667l4.266667-4.266667c12.8-12.8 21.333333-34.133333 21.333333-51.2 0-21.333333-8.533333-38.4-21.333333-51.2l-55.466667-55.466666c34.133333-42.666667 55.466667-98.133333 59.733333-153.6 59.733333-8.533333 115.2-8.533333 166.4-8.533334" fill="#F7CE00" p-id="4041"></path></svg>