<?xml version="1.0" standalone="no"?><!DOCTYPE svg PUBLIC "-//W3C//DTD SVG 1.1//EN" "http://www.w3.org/Graphics/SVG/1.1/DTD/svg11.dtd"><svg t="1680747331973" class="icon" viewBox="0 0 1024 1024" version="1.1" xmlns="http://www.w3.org/2000/svg" p-id="5685" xmlns:xlink="http://www.w3.org/1999/xlink" width="200" height="200"><path d="M920.96 526.037333l-409.6 409.6a141.653333 141.653333 0 0 1-200.533333 0L251.093333 875.904 856.96 270.037333l55.466667 55.466667c55.466667 55.466667 55.466667 149.333333 0 204.8" fill="#61CFBE" opacity=".6" p-id="5686"></path><path d="M102.4 435.2C200.533333 341.333333 294.4 243.2 392.533333 149.333333c29.866667-34.133333 38.4-81.066667 12.8-106.666666-85.333333 81.066667-166.4 166.4-247.466666 247.466666-8.533333-29.866667-29.866667-46.933333-55.466667-46.933333h-4.266667c0 64 0 123.733333 4.266667 192M401.066667 251.733333c-98.133333 93.866667-192 192-290.133334 285.866667-29.866667 29.866667-38.4 81.066667-12.8 102.4l247.466667-247.466667c8.533333 34.133333 29.866667 51.2 59.733333 51.2h4.266667c-4.266667-64-4.266667-128-8.533333-192 4.266667 0 4.266667 0 0 0" fill="#61CFBE" p-id="5687"></path></svg>