<?xml version="1.0" standalone="no"?><!DOCTYPE svg PUBLIC "-//W3C//DTD SVG 1.1//EN" "http://www.w3.org/Graphics/SVG/1.1/DTD/svg11.dtd"><svg t="1680747305957" class="icon" viewBox="0 0 1024 1024" version="1.1" xmlns="http://www.w3.org/2000/svg" p-id="5237" xmlns:xlink="http://www.w3.org/1999/xlink" width="200" height="200"><path d="M946.858667 454.4l-388.266667 388.266667c-51.2 51.2-136.533333 51.2-187.733333 0l-55.466667-55.466667c187.733333-192 379.733333-384 571.733333-576l55.466667 55.466667c55.466667 55.466667 55.466667 140.8 0 192" fill="#61CFBE" opacity=".6" p-id="5238"></path><path d="M273.066667 128c29.866667 0 55.466667 25.6 55.466666 55.466667v64c-29.866667 0-55.466667-25.6-55.466666-55.466667V128zM273.066667 273.066667c29.866667 0 55.466667 25.6 55.466666 55.466666v64c-29.866667 0-55.466667-25.6-55.466666-55.466666V273.066667zM42.666667 401.066667c17.066667 25.6 51.2 29.866667 76.8 12.8 12.8-8.533333 29.866667-21.333333 42.666666-29.866667-17.066667-25.6-51.2-34.133333-76.8-17.066667-12.8 12.8-29.866667 21.333333-42.666666 34.133334M153.6 435.2c17.066667 21.333333 51.2 29.866667 76.8 12.8 12.8-8.533333 29.866667-21.333333 42.666667-29.866667-17.066667-29.866667-51.2-34.133333-72.533334-17.066666-17.066667 12.8-29.866667 21.333333-46.933333 34.133333M580.266667 401.066667c-17.066667 25.6-51.2 29.866667-76.8 12.8-12.8-8.533333-29.866667-21.333333-42.666667-29.866667 17.066667-25.6 51.2-29.866667 76.8-12.8 12.8 8.533333 25.6 17.066667 42.666667 29.866667M465.066667 435.2c-17.066667 21.333333-51.2 29.866667-76.8 12.8-12.8-12.8-25.6-21.333333-42.666667-34.133333 17.066667-25.6 51.2-29.866667 76.8-12.8 12.8 12.8 29.866667 21.333333 42.666667 34.133333" fill="#61CFBE" p-id="5239"></path></svg>