<?xml version="1.0" standalone="no"?><!DOCTYPE svg PUBLIC "-//W3C//DTD SVG 1.1//EN" "http://www.w3.org/Graphics/SVG/1.1/DTD/svg11.dtd"><svg t="1680747409599" class="icon" viewBox="0 0 1024 1024" version="1.1" xmlns="http://www.w3.org/2000/svg" p-id="7036" xmlns:xlink="http://www.w3.org/1999/xlink" width="200" height="200"><path d="M746.666667 759.466667c-21.333333 42.666667-55.466667 81.066667-93.866667 106.666666 12.8-42.666667 8.533333-89.6-17.066667-123.733333-17.066667-29.866667-128-183.466667-128-183.466667-25.6 29.866667-140.8 187.733333-145.066666 192-17.066667 29.866667-21.333333 68.266667-17.066667 102.4-29.866667-25.6-55.466667-55.466667-72.533333-89.6-38.4-76.8-38.4-157.866667-4.266667-238.933333 8.533333-17.066667 17.066667-38.4 34.133333-59.733333 8.533333-12.8 21.333333-29.866667 29.866667-42.666667 38.4-59.733333 81.066667-115.2 119.466667-174.933333 17.066667-25.6 34.133333-51.2 55.466666-76.8 17.066667 25.6 34.133333 51.2 55.466667 76.8L682.666667 422.4c8.533333 12.8 21.333333 29.866667 29.866666 42.666667 17.066667 21.333333 25.6 42.666667 34.133334 59.733333 38.4 76.8 34.133333 162.133333 0 234.666667m64-281.6c0-12.8-294.4-430.933333-294.4-430.933334 0-4.266667-4.266667-4.266667-8.533334-4.266666s-4.266667 0-8.533333 4.266666c0 0-290.133333 418.133333-294.4 430.933334-51.2 98.133333-51.2 213.333333 0 315.733333 42.666667 89.6 119.466667 149.333333 213.333333 174.933333h8.533334c17.066667 4.266667 34.133333 8.533333 51.2 8.533334h51.2c17.066667 0 34.133333-4.266667 51.2-8.533334h8.533333c93.866667-25.6 170.666667-85.333333 213.333333-174.933333 59.733333-102.4 59.733333-217.6 8.533334-315.733333" fill="#F7CE00" p-id="7037"></path></svg>