<?xml version="1.0" standalone="no"?><!DOCTYPE svg PUBLIC "-//W3C//DTD SVG 1.1//EN" "http://www.w3.org/Graphics/SVG/1.1/DTD/svg11.dtd"><svg t="1680747203286" class="icon" viewBox="0 0 1024 1024" version="1.1" xmlns="http://www.w3.org/2000/svg" p-id="3594" xmlns:xlink="http://www.w3.org/1999/xlink" width="200" height="200"><path d="M512 315.733333c12.8 0 21.333333 8.533333 21.333333 17.066667V494.933333c0 12.8-8.533333 21.333333-21.333333 21.333334s-21.333333-8.533333-21.333333-17.066667V337.066667c0-12.8 12.8-21.333333 21.333333-21.333334z" fill="#000" opacity="0.4" p-id="3595"></path><path d="M584.533333 345.6c4.266667-8.533333 17.066667-12.8 25.6-8.533333 59.733333 34.133333 98.133333 98.133333 98.133334 170.666666 0 110.933333-89.6 196.266667-196.266667 196.266667s-196.266667-85.333333-196.266667-192c0-72.533333 38.4-136.533333 98.133334-170.666667 8.533333-4.266667 21.333333-4.266667 25.6 8.533334 4.266667 8.533333 4.266667 21.333333-8.533334 25.6-46.933333 25.6-76.8 76.8-76.8 136.533333 0 85.333333 68.266667 157.866667 157.866667 157.866667s157.866667-72.533333 157.866667-157.866667c0-55.466667-29.866667-106.666667-76.8-136.533333-12.8-8.533333-17.066667-21.333333-8.533334-29.866667z" fill="#000" opacity="0.4" p-id="3596"></path></svg>