<?xml version="1.0" standalone="no"?><!DOCTYPE svg PUBLIC "-//W3C//DTD SVG 1.1//EN" "http://www.w3.org/Graphics/SVG/1.1/DTD/svg11.dtd"><svg t="1680747283471" class="icon" viewBox="0 0 1024 1024" version="1.1" xmlns="http://www.w3.org/2000/svg" p-id="4788" xmlns:xlink="http://www.w3.org/1999/xlink" width="200" height="200"><path d="M183.04 507.733333c34.133333 0 64 25.6 72.533333 59.733334 25.6 115.2 132.266667 204.8 256 204.8s230.4-85.333333 256-204.8c8.533333-34.133333 38.4-59.733333 72.533334-59.733334 0 170.666667-132.266667 311.466667-294.4 328.533334v76.8h196.266666c38.4 0 68.266667 29.866667 68.266667 68.266666H212.906667c0-38.4 29.866667-68.266667 68.266666-68.266666h196.266667V836.266667C315.306667 819.2 183.04 678.4 183.04 507.733333" fill="#4FB4E3" opacity=".6" p-id="4789"></path><path d="M496.469333 465.066667c0 17.066667-12.8 34.133333-34.133333 34.133333-17.066667 0-34.133333-12.8-34.133333-34.133333V256c0-17.066667 12.8-34.133333 34.133333-34.133333 17.066667 0 34.133333 12.8 34.133333 34.133333v209.066667zM526.336 42.666667h-25.6C398.336 42.666667 317.269333 123.733333 317.269333 226.133333v294.4c0 98.133333 81.066667 183.466667 183.466667 183.466667h25.6c98.133333 0 183.466667-81.066667 183.466667-183.466667V226.133333C705.536 123.733333 624.469333 42.666667 526.336 42.666667z" fill="#4FB4E3" p-id="4790"></path></svg>