<?xml version="1.0" standalone="no"?><!DOCTYPE svg PUBLIC "-//W3C//DTD SVG 1.1//EN" "http://www.w3.org/Graphics/SVG/1.1/DTD/svg11.dtd"><svg t="1680747385847" class="icon" viewBox="0 0 1024 1024" version="1.1" xmlns="http://www.w3.org/2000/svg" p-id="6586" xmlns:xlink="http://www.w3.org/1999/xlink" width="200" height="200"><path d="M945.408 503.125333l-396.8 396.8c-55.466667 55.466667-140.8 55.466667-192 0L301.141333 844.458667C493.141333 648.192 689.408 451.925333 885.674667 255.658667l55.466666 55.466666c55.466667 55.466667 55.466667 145.066667 0 196.266667" fill="#61CFBE" opacity=".6" p-id="6587"></path><path d="M342.698667 477.866667c8.533333-12.8 25.6-25.6 42.666666-25.6 34.133333-4.266667 64-17.066667 85.333334-38.4 29.866667-29.866667 42.666667-64 42.666666-102.4 0-34.133333-17.066667-68.266667-42.666666-93.866667l-115.2-115.2c21.333333-21.333333 55.466667-21.333333 76.8 0l76.8 76.8c34.133333 34.133333 55.466667 81.066667 59.733333 132.266667 0 51.2-17.066667 102.4-55.466667 136.533333-34.133333 34.133333-85.333333 55.466667-132.266666 55.466667-17.066667 0-34.133333 0-46.933334-4.266667 0-8.533333 4.266667-17.066667 8.533334-21.333333" fill="#61CFBE" p-id="6588"></path><path d="M59.733333 443.733333c21.333333-8.533333 46.933333-8.533333 72.533334 0 46.933333 17.066667 102.4 4.266667 140.8-29.866666 25.6-29.866667 38.4-64 38.4-102.4 0-34.133333-17.066667-68.266667-42.666667-93.866667L153.6 102.4c21.333333-21.333333 55.466667-21.333333 76.8 0l76.8 76.8C341.333333 213.333333 362.666667 260.266667 366.933333 311.466667c0 51.2-17.066667 102.4-55.466666 136.533333-38.4 38.4-85.333333 55.466667-132.266667 55.466667-51.2 0-98.133333-17.066667-136.533333-55.466667 4.266667 0 12.8-4.266667 17.066666-4.266667" fill="#61CFBE" p-id="6589"></path></svg>