<?xml version="1.0" standalone="no"?><!DOCTYPE svg PUBLIC "-//W3C//DTD SVG 1.1//EN" "http://www.w3.org/Graphics/SVG/1.1/DTD/svg11.dtd"><svg t="1680747291181" class="icon" viewBox="0 0 1024 1024" version="1.1" xmlns="http://www.w3.org/2000/svg" p-id="4937" xmlns:xlink="http://www.w3.org/1999/xlink" width="200" height="200"><path d="M789.333333 838.016c34.133333 12.8 55.466667 46.933333 55.466667 81.066667v25.6c0 21.333333-17.066667 38.4-38.4 38.4H652.8c-25.6 0-38.4-21.333333-38.4-42.666667v-192H456.533333C401.066667 748.416 358.4 701.482667 358.4 646.016V411.349333C358.4 360.149333 401.066667 317.482667 452.266667 317.482667h17.066666c46.933333 0 85.333333 38.4 85.333334 85.333333v149.333333c0 12.8 8.533333 21.333333 17.066666 21.333334h123.733334c51.2 0 93.866667 42.666667 93.866666 93.866666v170.666667z" fill="#4FB4E3" p-id="4938"></path><path d="M390.826667 955.733333c4.266667 0 4.266667 0 8.533333 4.266667l4.266667 4.266667c29.866667 25.6 72.533333 4.266667 72.533333-34.133334-12.8 0-29.866667-4.266667-38.4-17.066666-4.266667-4.266667-8.533333-4.266667-8.533333-8.533334-8.533333-8.533333-25.6-12.8-38.4-12.8-12.8 0-29.866667 4.266667-38.4 17.066667-4.266667 4.266667-8.533333 4.266667-8.533334 8.533333-8.533333 8.533333-25.6 17.066667-38.4 17.066667 0 38.4 42.666667 59.733333 72.533334 34.133333l4.266666-4.266666c4.266667-4.266667 4.266667-8.533333 8.533334-8.533334M390.826667 763.733333c-12.8 0-29.866667 4.266667-38.4 17.066667-4.266667 4.266667-8.533333 4.266667-8.533334 8.533333-25.6 21.333333-59.733333 21.333333-81.066666 0l-8.533334-8.533333c-21.333333-21.333333-55.466667-21.333333-76.8 0 4.266667 4.266667 4.266667 8.533333 8.533334 12.8 8.533333 8.533333 12.8 21.333333 21.333333 29.866667l25.6 25.6c42.666667 29.866667 106.666667 29.866667 145.066667-8.533334 4.266667 0 4.266667-4.266667 8.533333-4.266666s4.266667 0 8.533333 4.266666c38.4 38.4 102.4 42.666667 145.066667 8.533334l25.6-25.6c8.533333-8.533333 17.066667-17.066667 21.333333-29.866667 4.266667-4.266667 4.266667-8.533333 8.533334-12.8-21.333333-21.333333-55.466667-21.333333-76.8 0 0 4.266667 0 8.533333-4.266667 8.533333-21.333333 21.333333-55.466667 21.333333-76.8 0l-8.533333-8.533333c-12.8-8.533333-25.6-17.066667-38.4-17.066667" fill="#4FB4E3" opacity=".6" p-id="4939"></path><path d="M540.16 81.066667c-21.333333-25.6-51.2-38.4-85.333333-38.4s-64 12.8-89.6 38.4-34.133333 51.2-34.133334 85.333333 12.8 64 34.133334 89.6c12.8 12.8 29.866667 25.6 51.2 29.866667 12.8 4.266667 25.6 4.266667 38.4 4.266666 34.133333 0 64-12.8 85.333333-34.133333 25.6-25.6 38.4-55.466667 38.4-89.6s-12.8-64-38.4-85.333333" fill="#4FB4E3" p-id="4940"></path></svg>