<?xml version="1.0" standalone="no"?><!DOCTYPE svg PUBLIC "-//W3C//DTD SVG 1.1//EN" "http://www.w3.org/Graphics/SVG/1.1/DTD/svg11.dtd"><svg t="1680747348699" class="icon" viewBox="0 0 1024 1024" version="1.1" xmlns="http://www.w3.org/2000/svg" p-id="5982" xmlns:xlink="http://www.w3.org/1999/xlink" width="200" height="200"><path d="M456.809813 490.666667c42.666667 21.333333 64 38.4 89.6 51.2 25.6 12.8 51.2 25.6 76.8 21.333333 25.6-4.266667 55.466667-25.6 64-55.466667 4.266667-12.8 0-29.866667-8.533333-42.666666-8.533333-12.8-25.6-21.333333-42.666667-25.6-17.066667-4.266667-42.666667-4.266667-68.266666 0-25.6 8.533333-55.466667 21.333333-110.933334 51.2" fill="#F9A01E" opacity=".6" p-id="5983"></path><path d="M812.223147 42.666667c4.266667 68.266667 34.133333 115.2 51.2 162.133333 12.8 46.933333 17.066667 93.866667 8.533333 140.8-12.8 42.666667-34.133333 81.066667-123.733333 106.666667C658.623147 418.133333 628.75648 332.8 654.35648 256c21.333333-72.533333 93.866667-136.533333 157.866667-213.333333" fill="#F9A01E" opacity=".6" p-id="5984"></path><path d="M217.87648 328.533333c12.8 0 21.333333 8.533333 21.333333 21.333334v93.866666h-21.333333V328.533333zM320.27648 328.533333c12.8 0 21.333333 8.533333 21.333333 21.333334v93.866666h-21.333333V328.533333z" fill="#F9A01E" p-id="5985"></path><path d="M149.609813 479.274667C149.609813 466.474667 158.143147 457.941333 170.943147 457.941333h226.133333c12.8 0 21.333333 8.533333 21.333333 21.333334v132.266666h-4.266666v4.266667c0 46.933333-42.666667 89.6-98.133334 98.133333 12.8 153.6 166.4 251.733333 315.733334 196.266667 153.6-59.733333 200.533333-251.733333 89.6-371.2 21.333333-21.333333 59.733333-12.8 76.8 12.8 85.333333 149.333333 21.333333 345.6-145.066667 409.6-183.466667 68.266667-375.466667-55.466667-388.266667-243.2C200.809813 709.674667 149.609813 667.008 149.609813 615.808V479.274667z" fill="#F9A01E" p-id="5986"></path></svg>