<?xml version="1.0" standalone="no"?><!DOCTYPE svg PUBLIC "-//W3C//DTD SVG 1.1//EN" "http://www.w3.org/Graphics/SVG/1.1/DTD/svg11.dtd"><svg t="1680747401132" class="icon" viewBox="0 0 1024 1024" version="1.1" xmlns="http://www.w3.org/2000/svg" p-id="6885" xmlns:xlink="http://www.w3.org/1999/xlink" width="200" height="200"><path d="M773.973333 494.933333h-384c-34.133333 0-68.266667-17.066667-81.066666-46.933333l-12.8-17.066667h567.466666l-8.533333 17.066667c-12.8 29.866667-46.933333 46.933333-81.066667 46.933333" fill="#4FB4E3" p-id="6886"></path><path d="M178.176 490.666667l-4.266667 4.266666c-4.266667 4.266667-12.8 0-12.8-8.533333V42.666667l17.066667 8.533333c29.866667 12.8 46.933333 42.666667 46.933333 76.8v285.866667c0 34.133333-17.066667 64-46.933333 76.8" fill="#4FB4E3" p-id="6887"></path><path d="M855.04 559.445333H159.573333l12.8 273.066667C176.64 917.845333 244.906667 981.845333 330.24 981.845333h290.133333c72.533333 0 132.266667-46.933333 149.333334-115.2l51.2-187.733333 34.133333-119.466667z" fill="#4FB4E3" p-id="6888"></path><path d="M577.706667 149.333333c17.066667-17.066667 21.333333-46.933333 4.266666-64-4.266667 0-21.333333 17.066667-123.733333 106.666667 29.866667 0 81.066667 4.266667 81.066667 4.266667 81.066667 8.533333 145.066667 64 162.133333 140.8 12.8 46.933333 46.933333 55.466667 51.2 59.733333 8.533333-115.2-68.266667-217.6-174.933333-247.466667 0 4.266667 0 0 0 0" fill="#4FB4E3" opacity=".6" p-id="6889"></path></svg>