<?xml version="1.0" standalone="no"?><!DOCTYPE svg PUBLIC "-//W3C//DTD SVG 1.1//EN" "http://www.w3.org/Graphics/SVG/1.1/DTD/svg11.dtd"><svg t="1680747276098" class="icon" viewBox="0 0 1024 1024" version="1.1" xmlns="http://www.w3.org/2000/svg" p-id="4638" xmlns:xlink="http://www.w3.org/1999/xlink" width="200" height="200"><path d="M776.533333 499.2c-38.4 55.466667-46.933333 68.266667-51.2 76.8 0 4.266667-4.266667 4.266667-4.266666 8.533333-4.266667-4.266667-8.533333-12.8-12.8-17.066666-8.533333-12.8-25.6-21.333333-38.4-25.6h-8.533334c-17.066667 0-29.866667 8.533333-42.666666 25.6-46.933333 64-64 93.866667-76.8 110.933333l-4.266667 8.533333v4.266667c-21.333333 42.666667-17.066667 89.6 0 128 17.066667 34.133333 46.933333 64 85.333333 72.533333h8.533334c8.533333 0 12.8 4.266667 21.333333 4.266667h17.066667c4.266667 0 12.8 0 17.066666-4.266667-38.4 34.133333-85.333333 59.733333-132.266666 72.533334h-4.266667-4.266667c-17.066667 12.8-34.133333 17.066667-51.2 17.066666H448h-4.266667-4.266666c-17.066667 0-34.133333-4.266667-51.2-8.533333H384h-4.266667c-93.866667-25.6-170.666667-85.333333-213.333333-174.933333-51.2-102.4-51.2-217.6 0-315.733334C166.4 469.333333 460.8 51.2 460.8 51.2c0-8.533333 4.266667-8.533333 4.266667-8.533333 4.266667 0 8.533333 0 8.533333 4.266666 0 0 290.133333 418.133333 294.4 430.933334 4.266667 8.533333 4.266667 12.8 8.533333 21.333333" fill="#61CFBE" p-id="4639"></path><path d="M742.4 712.533333c0 4.266667 4.266667 8.533333 4.266667 12.8-21.333333 12.8-34.133333 34.133333-34.133334 55.466667 0 12.8 4.266667 25.6 12.8 38.4-12.8 12.8-25.6 21.333333-42.666666 25.6-4.266667 0-8.533333 0-12.8 4.266667H657.066667h-4.266667c-4.266667 0-8.533333 0-12.8-4.266667-25.6-8.533333-46.933333-21.333333-55.466667-46.933333-12.8-25.6-12.8-55.466667 0-85.333334 0-4.266667 76.8-115.2 76.8-115.2 4.266667 0 81.066667 110.933333 81.066667 115.2zM793.6 669.866667c4.266667-4.266667 4.266667-4.266667 8.533333-4.266667 8.533333-4.266667 21.333333-8.533333 34.133334-8.533333 12.8 0 25.6 4.266667 34.133333 8.533333 4.266667-4.266667 8.533333-8.533333 12.8-17.066667 8.533333-17.066667 8.533333-38.4 0-55.466666l-51.2-76.8s-12.8 17.066667-25.6 38.4c-4.266667 4.266667-4.266667 4.266667-4.266667 8.533333-8.533333 17.066667-17.066667 29.866667-21.333333 29.866667-8.533333 17.066667-8.533333 38.4 0 55.466666 0 8.533333 8.533333 17.066667 12.8 21.333334" fill="#61CFBE" opacity=".6" p-id="4640"></path><path d="M897.706667 765.397333c-21.333333-4.266667-34.133333-12.8-42.666667-29.866666-4.266667-4.266667-4.266667-12.8-8.533333-17.066667 0-4.266667-4.266667-8.533333-8.533334-8.533333s-8.533333 4.266667-12.8 8.533333c0 4.266667-4.266667 12.8-8.533333 17.066667 0 8.533333-4.266667 12.8-8.533333 17.066666-8.533333 4.266667-17.066667 12.8-29.866667 12.8-4.266667 4.266667-8.533333 8.533333-8.533333 12.8 0 4.266667 0 4.266667 4.266666 8.533334l4.266667 4.266666h4.266667c8.533333 0 17.066667 4.266667 21.333333 8.533334 8.533333 8.533333 21.333333 21.333333 21.333333 38.4 0 4.266667 4.266667 8.533333 12.8 8.533333 4.266667 0 8.533333-4.266667 8.533334-8.533333 8.533333-25.6 25.6-42.666667 51.2-51.2 4.266667 0 8.533333-4.266667 8.533333-12.8L897.706667 765.397333" fill="#61CFBE" opacity=".6" p-id="4641"></path></svg>