<svg t="1688089485715" class="icon" viewBox="0 0 1066 1024" version="1.1" xmlns="http://www.w3.org/2000/svg" p-id="2408" width="200" height="200"><path d="M192 608l-67.99999968-72 67.99999968-72 4.00000032-4.00000031s0-4.00000031 3.99999937-3.99999938c0 0 0-4.00000031 4.00000031-4.00000031v-4.00000031c0-4.00000031 0-4.00000031 4.00000032-7.99999969V432.00000031c0-4.00000031 0-12-4.00000032-16.00000031 0-4.00000031-4.00000031-4.00000031-4.00000031-7.99999969 0 0 0-4.00000031-3.99999937-4.00000031 0 0 0-4.00000031-4.00000032-4.00000031L172.00000032 387.99999969 36 536 172.00000032 684.00000031l15.99999937-12c4.00000031-4.00000031 7.99999969-7.99999969 12-16.00000031 4.00000031-4.00000031 4.00000031-12 4.00000031-16.00000031 0-4.00000031 0-12-4.00000031-15.99999938-4.00000031-7.99999969-4.00000031-12-7.99999969-16.00000031z m-4.00000031-156zM892.00000032 375.99999969l-16.00000032 16.00000031h-4.00000031s0 4.00000031-3.99999937 4.00000031c0 4.00000031-4.00000031 4.00000031-4.00000032 7.99999969-4.00000031 4.00000031-4.00000031 12-4.00000031 16.00000031v7.99999969c0 4.00000031 0 4.00000031 4.00000031 7.99999969 0 0 0 4.00000031 4.00000032 4.00000031v4.00000031s0 4.00000031 3.99999937 3.99999938l68.00000063 76.00000031-68.00000063 72c-4.00000031 4.00000031-7.99999969 7.99999969-7.99999969 16.00000031 0 4.00000031-4.00000031 12-4.00000031 15.99999938 0 4.00000031 0 12 4.00000031 16.00000031 4.00000031 4.00000031 4.00000031 12 7.99999969 12l20.00000063 16.00000031 135.99999937-148.00000031L892.00000032 375.99999969z" fill="#4FB4E3" p-id="2409"></path><path d="M292.00000032 572c-4.00000031-12-7.99999969-24-8.00000063-40.00000031 0-12 4.00000031-28.00000031 8.00000063-39.99999938 4.00000031-7.99999969 4.00000031-19.99999969 0-28.00000031-4.00000031-12-19.99999969-24-36-31.99999969l-8.00000063-4.00000031-3.99999937 4.00000031c-48 60-48 127.99999969 0 187.99999969l3.99999937 12h8.00000063c19.99999969-7.99999969 31.99999969-16.00000031 36-31.99999969 4.00000031-7.99999969 4.00000031-19.99999969 0-28.00000031zM820.00000032 440l-4.00000032-4.00000031-7.99999968 4.00000031c-19.99999969 7.99999969-31.99999969 16.00000031-36 31.99999969-4.00000031 7.99999969-4.00000031 19.99999969 0 28.00000031 4.00000031 12 7.99999969 28.00000031 7.99999968 40.00000031 0 12-4.00000031 28.00000031-7.99999968 39.99999938-4.00000031 7.99999969-4.00000031 19.99999969 0 28.00000031 4.00000031 12 19.99999969 24 36 31.99999969l7.99999968 4.00000031 4.00000032-4.00000031c43.99999969-72 43.99999969-139.99999969 0-199.99999969z" fill="#4FB4E3" p-id="2410"></path><path d="M312 524c79.99999969 88.00000031 151.99999969 132 220.00000032 132s139.99999969-43.99999969 219.99999937-132C672 435.99999969 595.99999969 392 532.00000032 392s-139.99999969 43.99999969-220.00000032 132z" fill="#4FB4E3" p-id="2411"></path></svg>