<?xml version="1.0" standalone="no"?><!DOCTYPE svg PUBLIC "-//W3C//DTD SVG 1.1//EN" "http://www.w3.org/Graphics/SVG/1.1/DTD/svg11.dtd"><svg t="1680747135504" class="icon" viewBox="0 0 1024 1024" version="1.1" xmlns="http://www.w3.org/2000/svg" p-id="2546" xmlns:xlink="http://www.w3.org/1999/xlink" width="200" height="200"><path d="M762.88 791.04l-5.12-5.12v-112.64-5.12c-2.56-17.92-17.92-30.72-35.84-30.72-20.48 0-38.4 15.36-38.4 38.4v112.64c-20.48 17.92-23.04 48.64-10.24 71.68 2.56 2.56 5.12 5.12 5.12 7.68 10.24 12.8 25.6 17.92 40.96 17.92 12.8 0 25.6-5.12 38.4-15.36 23.04-20.48 25.6-56.32 5.12-79.36" fill="#FFFFFF" opacity=".6" p-id="2547"></path><path d="M791.04 547.84c-7.68 25.6-12.8 48.64-20.48 74.24-12.8-12.8-30.72-20.48-48.64-20.48-40.96 0-74.24 33.28-74.24 74.24v99.84c-20.48 28.16-25.6 66.56-7.68 99.84-10.24 2.56-23.04 5.12-33.28 5.12h-227.84c-66.56 0-120.32-51.2-122.88-117.76l-10.24-212.48h545.28zM253.44 491.52c-5.12 2.56-10.24 0-10.24-5.12V138.24l12.8 7.68c23.04 10.24 35.84 33.28 35.84 58.88v220.16c2.56 28.16-12.8 53.76-38.4 66.56" fill="#FFFFFF" p-id="2548"></path></svg>