<?xml version="1.0" standalone="no"?><!DOCTYPE svg PUBLIC "-//W3C//DTD SVG 1.1//EN" "http://www.w3.org/Graphics/SVG/1.1/DTD/svg11.dtd"><svg t="1680747417687" class="icon" viewBox="0 0 1024 1024" version="1.1" xmlns="http://www.w3.org/2000/svg" p-id="7184" xmlns:xlink="http://www.w3.org/1999/xlink" width="200" height="200"><path d="M860.16 559.445333H164.693333l12.8 273.066667C181.76 917.845333 250.026667 981.845333 335.36 981.845333h290.133333c72.533333 0 132.266667-46.933333 149.333334-115.2l51.2-187.733333 34.133333-119.466667z" fill="#4FB4E3" p-id="7185"></path><path d="M179.029333 494.933333c-4.266667 4.266667-12.8 0-12.8-8.533333V42.666667l17.066667 8.533333c29.866667 12.8 46.933333 42.666667 46.933333 76.8v281.6c0 38.4-17.066667 68.266667-51.2 85.333333" fill="#4FB4E3" p-id="7186"></path><path d="M309.888 494.933333c-4.266667 4.266667-12.8 0-12.8-8.533333V42.666667l17.066667 8.533333c29.866667 12.8 46.933333 42.666667 46.933333 76.8v281.6c0 38.4-17.066667 68.266667-51.2 85.333333" fill="#4FB4E3" p-id="7187"></path><path d="M582.826667 243.2c17.066667-17.066667 21.333333-46.933333 4.266666-64 0 0-17.066667 12.8-123.733333 102.4 29.866667 0 81.066667 4.266667 81.066667 4.266667 81.066667 8.533333 145.066667 64 162.133333 140.8 12.8 46.933333 46.933333 55.466667 51.2 59.733333 8.533333-115.2-68.266667-217.6-174.933333-243.2" fill="#4FB4E3" opacity=".6" p-id="7188"></path></svg>