<?xml version="1.0" standalone="no"?><!DOCTYPE svg PUBLIC "-//W3C//DTD SVG 1.1//EN" "http://www.w3.org/Graphics/SVG/1.1/DTD/svg11.dtd"><svg t="1680747220555" class="icon" viewBox="0 0 1024 1024" version="1.1" xmlns="http://www.w3.org/2000/svg" p-id="3892" xmlns:xlink="http://www.w3.org/1999/xlink" width="200" height="200"><path d="M503.466667 140.8c8.533333-12.8 8.533333-25.6 4.266666-38.4-4.266667-8.533333-17.066667-17.066667-29.866666-17.066667h-4.266667C251.733333 106.666667 85.333333 290.133333 85.333333 516.266667c0 192 132.266667 358.4 315.733334 409.6 34.133333 8.533333 72.533333 12.8 110.933333 12.8 17.066667 0 29.866667 0 46.933333-4.266667h8.533334c29.866667-4.266667 55.466667-12.8 85.333333-21.333333 25.6-8.533333 55.466667-21.333333 81.066667-34.133334 4.266667 0 12.8-8.533333 42.666666-29.866666 85.333333-55.466667 153.6-183.466667 162.133334-298.666667 0-12.8-4.266667-25.6-17.066667-34.133333-8.533333-4.266667-12.8-4.266667-17.066667-4.266667-8.533333 0-17.066667 4.266667-21.333333 8.533333-46.933333 34.133333-102.4 51.2-157.866667 51.2-59.733333 0-110.933333-17.066667-157.866666-51.2-123.733333-89.6-149.333333-260.266667-64-379.733333" fill="#F7CE00" p-id="3893"></path></svg>