<?xml version="1.0" standalone="no"?><!DOCTYPE svg PUBLIC "-//W3C//DTD SVG 1.1//EN" "http://www.w3.org/Graphics/SVG/1.1/DTD/svg11.dtd"><svg t="1680747370509" class="icon" viewBox="0 0 1024 1024" version="1.1" xmlns="http://www.w3.org/2000/svg" p-id="6283" xmlns:xlink="http://www.w3.org/1999/xlink" width="200" height="200"><path d="M627.2 750.933333v55.466667H725.333333c4.266667 12.8 4.266667 21.333333 12.8 34.133333-55.466667 4.266667-98.133333 46.933333-106.666666 102.4-21.333333 12.8-46.933333 21.333333-72.533334 29.866667H554.666667h-4.266667c-21.333333 4.266667-38.4 8.533333-55.466667 8.533333H443.733333h-4.266666c-17.066667 0-34.133333-4.266667-51.2-8.533333H384h-4.266667c-93.866667-25.6-170.666667-85.333333-213.333333-174.933333-51.2-102.4-51.2-217.6 0-315.733334C166.4 469.333333 460.8 51.2 460.8 51.2c0-8.533333 4.266667-8.533333 4.266667-8.533333 4.266667 0 8.533333 0 8.533333 4.266666 0 0 290.133333 418.133333 294.4 430.933334 8.533333 21.333333 17.066667 42.666667 25.6 59.733333H725.333333v98.133333c-55.466667 8.533333-98.133333 59.733333-98.133333 115.2" fill="#61CFBE" p-id="6284"></path><path d="M840.533333 687.616v-29.866667C840.533333 632.149333 827.733333 610.816 806.4 602.282667 793.6 598.016 785.066667 593.749333 776.533333 593.749333v93.866667h-29.866666C712.533333 687.616 682.666667 717.482667 682.666667 751.616h93.866666v29.866667c0 34.133333 29.866667 64 64 64V751.616h29.866667c34.133333 0 64-29.866667 64-64H840.533333z" fill="#61CFBE" opacity=".6" p-id="6285"></path><path d="M934.4 892.416c0 34.133333-29.866667 64-64 64H682.666667C682.666667 922.282667 712.533333 892.416 746.666667 892.416h187.733333z" fill="#61CFBE" opacity=".6" p-id="6286"></path></svg>