<?xml version="1.0" standalone="no"?><!DOCTYPE svg PUBLIC "-//W3C//DTD SVG 1.1//EN" "http://www.w3.org/Graphics/SVG/1.1/DTD/svg11.dtd"><svg t="1680747078012" class="icon" viewBox="0 0 1024 1024" version="1.1" xmlns="http://www.w3.org/2000/svg" p-id="2095" xmlns:xlink="http://www.w3.org/1999/xlink" width="200" height="200"><path d="M665.6 217.6c5.12 89.6-51.2 140.8-94.72 186.88L435.2 540.16l-46.08 46.08c-143.36 143.36-40.96 240.64-40.96 240.64-5.12-89.6 51.2-140.8 94.72-186.88l135.68-135.68 46.08-46.08c148.48-148.48 40.96-240.64 40.96-240.64M412.16 332.8l-12.8 12.8-28.16 25.6-38.4 35.84c-128 122.88-53.76 202.24-53.76 202.24 25.6-87.04 64-115.2 102.4-153.6l12.8-12.8 28.16-25.6 38.4-35.84c128-122.88 53.76-202.24 53.76-202.24-25.6 87.04-64 115.2-102.4 153.6" fill="#000" opacity="0.4" p-id="2096"></path><path d="M642.56 565.76l-12.8 12.8-28.16 25.6-38.4 38.4c-128 122.88-53.76 202.24-53.76 202.24 25.6-87.04 64-115.2 102.4-153.6l12.8-12.8 28.16-25.6 38.4-35.84c128-122.88 53.76-202.24 53.76-202.24-25.6 84.48-64 115.2-102.4 151.04" fill="#000" opacity=".2" p-id="2097"></path></svg>