<?xml version="1.0" standalone="no"?><!DOCTYPE svg PUBLIC "-//W3C//DTD SVG 1.1//EN" "http://www.w3.org/Graphics/SVG/1.1/DTD/svg11.dtd"><svg t="1680747167316" class="icon" viewBox="0 0 1024 1024" version="1.1" xmlns="http://www.w3.org/2000/svg" p-id="2995" xmlns:xlink="http://www.w3.org/1999/xlink" width="200" height="200"><path d="M512 325.12c-56.32 0-102.4-46.08-102.4-102.4s46.08-102.4 102.4-102.4 102.4 46.08 102.4 102.4-46.08 102.4-102.4 102.4" fill="#000" opacity="0.4" p-id="2996"></path><path d="M358.4 604.16c17.92-23.04 51.2-28.16 74.24-12.8l43.52 30.72c-17.92 23.04-51.2 28.16-74.24 12.8L358.4 604.16zM248.32 637.44c17.92-23.04 51.2-28.16 74.24-12.8l43.52 30.72c-17.92 23.04-51.2 28.16-74.24 12.8l-43.52-30.72zM665.6 604.16c-17.92-23.04-51.2-28.16-74.24-12.8l-43.52 30.72c17.92 23.04 51.2 28.16 74.24 12.8l43.52-30.72zM775.68 637.44c-17.92-23.04-51.2-28.16-74.24-12.8l-43.52 30.72c17.92 23.04 51.2 28.16 74.24 12.8l43.52-30.72zM547.84 760.32c-30.72 0-53.76-23.04-53.76-53.76v-64c30.72 0 53.76 23.04 53.76 53.76v64zM547.84 906.24c-30.72 0-53.76-23.04-53.76-53.76v-64c30.72 0 53.76 23.04 53.76 53.76v64z" fill="#000" opacity=".2" p-id="2997"></path><path d="M286.72 522.24c30.72-30.72 46.08-66.56 51.2-107.52 2.56-25.6 23.04-43.52 46.08-43.52h253.44c25.6 0 43.52 17.92 46.08 43.52 2.56 40.96 20.48 79.36 51.2 107.52l33.28 33.28c-17.92 17.92-51.2 17.92-69.12 0l-2.56-2.56c-35.84-35.84-58.88-74.24-64-122.88 0-2.56-2.56-5.12-7.68-5.12h-225.28c-2.56 0-7.68 2.56-7.68 5.12-7.68 48.64-30.72 87.04-64 122.88l-2.56 2.56c-17.92 17.92-51.2 17.92-69.12 0l30.72-33.28z" fill="#000" opacity="0.4" p-id="2998"></path></svg>