<?xml version="1.0" standalone="no"?><!DOCTYPE svg PUBLIC "-//W3C//DTD SVG 1.1//EN" "http://www.w3.org/Graphics/SVG/1.1/DTD/svg11.dtd"><svg t="1680747194561" class="icon" viewBox="0 0 1024 1024" version="1.1" xmlns="http://www.w3.org/2000/svg" p-id="3445" xmlns:xlink="http://www.w3.org/1999/xlink" width="200" height="200"><path d="M938.666667 913.066667h-192c-34.133333 0-64 29.866667-64 64h192c38.4 0 64-29.866667 64-64M780.8 610.133333v93.866667h-34.133333c-34.133333 0-64 29.866667-64 64h93.866666v34.133333c0 34.133333 29.866667 64 64 64V768h34.133334c34.133333 0 64-29.866667 64-64h-93.866667v-34.133333c0-34.133333-29.866667-59.733333-64-59.733334" fill="#61CFBE" opacity=".6" p-id="3446"></path><path d="M584.533333 588.8l-17.066666 17.066667-38.4 38.4c-17.066667 17.066667-34.133333 34.133333-55.466667 51.2C294.4 870.4 396.8 981.333333 396.8 981.333333c38.4-123.733333 89.6-162.133333 145.066667-217.6l17.066666-17.066666 38.4-38.4c17.066667-17.066667 34.133333-34.133333 55.466667-51.2 183.466667-174.933333 76.8-285.866667 76.8-285.866667-34.133333 123.733333-89.6 166.4-145.066667 217.6M260.266667 260.266667c-4.266667 4.266667-12.8 8.533333-17.066667 17.066666-12.8 8.533333-25.6 21.333333-38.4 34.133334-17.066667 17.066667-38.4 34.133333-55.466667 51.2-183.466667 174.933333-76.8 285.866667-76.8 285.866666 38.4-123.733333 89.6-162.133333 145.066667-217.6l17.066667-17.066666 38.4-38.4c17.066667-17.066667 34.133333-34.133333 55.466666-51.2C512 153.6 405.333333 42.666667 405.333333 42.666667c-34.133333 123.733333-89.6 162.133333-145.066666 217.6M622.933333 98.133333c8.533333 123.733333-72.533333 200.533333-132.266666 264.533334L298.666667 554.666667c-21.333333 21.333333-42.666667 42.666667-68.266667 64-204.8 204.8-55.466667 341.333333-55.466667 341.333333-8.533333-123.733333 72.533333-200.533333 132.266667-264.533333l192-192c21.333333-21.333333 42.666667-42.666667 68.266667-64 204.8-213.333333 55.466667-341.333333 55.466666-341.333334" fill="#61CFBE" p-id="3447"></path></svg>