<?xml version="1.0" standalone="no"?><!DOCTYPE svg PUBLIC "-//W3C//DTD SVG 1.1//EN" "http://www.w3.org/Graphics/SVG/1.1/DTD/svg11.dtd"><svg t="1680747210992" class="icon" viewBox="0 0 1024 1024" version="1.1" xmlns="http://www.w3.org/2000/svg" p-id="3743" xmlns:xlink="http://www.w3.org/1999/xlink" width="200" height="200"><path d="M665.6 93.866667c8.533333 115.2-64 187.733333-123.733333 243.2L362.666667 512 298.666667 576c-187.733333 187.733333-51.2 315.733333-51.2 315.733333-8.533333-115.2 64-187.733333 123.733333-243.2l179.2-179.2 59.733333-59.733333c196.266667-196.266667 55.466667-315.733333 55.466667-315.733333M328.533333 243.2l-17.066666 17.066667-34.133334 34.133333L226.133333 341.333333c-170.666667 162.133333-72.533333 264.533333-72.533333 264.533334 34.133333-110.933333 85.333333-149.333333 136.533333-200.533334l17.066667-17.066666 34.133333-34.133334 51.2-46.933333c170.666667-162.133333 72.533333-264.533333 72.533334-264.533333-34.133333 110.933333-85.333333 149.333333-136.533334 200.533333M631.466667 550.4l-17.066667 17.066667-34.133333 29.866666-51.2 46.933334c-170.666667 162.133333-72.533333 264.533333-72.533334 264.533333 34.133333-110.933333 85.333333-149.333333 136.533334-200.533333l17.066666-17.066667 34.133334-34.133333 51.2-46.933334c170.666667-162.133333 72.533333-264.533333 72.533333-264.533333-34.133333 115.2-85.333333 153.6-136.533333 204.8" fill="#F9A01E" p-id="3744"></path><path d="M870.4 669.866667c0-29.866667-25.6-55.466667-55.466667-55.466667-29.866667 0-55.466667 25.6-55.466666 55.466667v166.4c-34.133333 29.866667-38.4 81.066667-8.533334 115.2 29.866667 34.133333 81.066667 38.4 115.2 8.533333 34.133333-29.866667 38.4-81.066667 8.533334-115.2 0-4.266667-4.266667-4.266667-8.533334-8.533333v-166.4z" fill="#F9A01E" opacity=".6" p-id="3745"></path></svg>