<?xml version="1.0" standalone="no"?><!DOCTYPE svg PUBLIC "-//W3C//DTD SVG 1.1//EN" "http://www.w3.org/Graphics/SVG/1.1/DTD/svg11.dtd"><svg t="1680747262743" class="icon" viewBox="0 0 1024 1024" version="1.1" xmlns="http://www.w3.org/2000/svg" p-id="4489" xmlns:xlink="http://www.w3.org/1999/xlink" width="200" height="200"><path d="M669.866667 682.666667v140.8c-8.533333 12.8-12.8 21.333333-17.066667 34.133333-25.6 17.066667-55.466667 29.866667-85.333333 38.4h-4.266667-4.266667c-17.066667 4.266667-34.133333 4.266667-46.933333 8.533333h-46.933333-4.266667c-17.066667 0-34.133333-4.266667-46.933333-8.533333h-4.266667-4.266667c-85.333333-21.333333-157.866667-81.066667-196.266666-162.133333-46.933333-93.866667-46.933333-200.533333 0-290.133334 0-8.533333 268.8-396.8 268.8-396.8 0-4.266667 4.266667-4.266667 4.266666-4.266666 4.266667 0 4.266667 0 8.533334 4.266666 0 0 268.8 388.266667 268.8 396.8 21.333333 42.666667 34.133333 93.866667 34.133333 140.8-8.533333 0-17.066667-4.266667-25.6-4.266666-51.2 0-98.133333 46.933333-98.133333 102.4" fill="#F9A01E" p-id="4490"></path><path d="M832 849.066667c0-4.266667-4.266667-4.266667-4.266667-4.266667V682.666667c0-21.333333-12.8-38.4-34.133333-46.933334-4.266667-4.266667-12.8-4.266667-21.333333-4.266666-29.866667 0-51.2 21.333333-51.2 51.2v157.866666c-34.133333 29.866667-34.133333 76.8-4.266667 110.933334 17.066667 17.066667 38.4 25.6 59.733333 25.6 17.066667 0 38.4-8.533333 51.2-21.333334 29.866667-21.333333 29.866667-72.533333 4.266667-106.666666" fill="#F9A01E" opacity=".6" p-id="4491"></path></svg>