<?xml version="1.0" standalone="no"?><!DOCTYPE svg PUBLIC "-//W3C//DTD SVG 1.1//EN" "http://www.w3.org/Graphics/SVG/1.1/DTD/svg11.dtd"><svg t="1678256147741" class="icon" viewBox="0 0 1024 1024" version="1.1" xmlns="http://www.w3.org/2000/svg" p-id="4965" xmlns:xlink="http://www.w3.org/1999/xlink" width="200" height="200"><path d="M917.333333 546.133333h-810.666666c-12.8 0-25.6-8.533333-29.866667-21.333333s-4.266667-25.6 8.533333-34.133333L448 128c12.8-12.8 34.133333-12.8 46.933333 0s12.8 34.133333 0 46.933333l-311.466666 311.466667h733.866666c17.066667 0 34.133333 12.8 34.133334 34.133333s-17.066667 25.6-34.133334 25.6zM490.666667 853.333333l-264.533334-264.533333H136.533333l311.466667 311.466667c4.266667 4.266667 12.8 8.533333 21.333333 8.533333s17.066667-4.266667 21.333334-8.533333c12.8-12.8 12.8-34.133333 0-46.933334z" p-id="4966"></path><path d="M93.866667 541.866667h89.6L128 490.666667c-12.8-12.8-34.133333-12.8-46.933333 0s-12.8 34.133333 0 46.933333l12.8 4.266667z" p-id="4967"></path></svg>