<?xml version="1.0" standalone="no"?>
<!DOCTYPE svg PUBLIC "-//W3C//DTD SVG 1.1//EN" "http://www.w3.org/Graphics/SVG/1.1/DTD/svg11.dtd">
<svg t="1678255214890" class="icon" viewBox="0 0 1024 1024" version="1.1" xmlns="http://www.w3.org/2000/svg" p-id="3334" xmlns:xlink="http://www.w3.org/1999/xlink" width="200" height="200">
<path opacity="0.6" d="M870.4 623.018667c8.533333 25.6 25.6 46.933333 55.466667 55.466666l55.466666 12.8-55.466666 12.8c-25.6 8.533333-46.933333 25.6-55.466667 55.466667l-12.8 55.466667-12.8-55.466667c-8.533333-25.6-25.6-46.933333-55.466667-55.466667l-55.466666-12.8 55.466666-12.8c25.6-8.533333 46.933333-25.6 55.466667-55.466666l12.8-55.466667 12.8 55.466667zM179.2 281.685333c8.533333 25.6 25.6 46.933333 55.466667 55.466667l55.466666 12.8-55.466666 12.8c-25.6 8.533333-46.933333 29.866667-55.466667 55.466667l-12.8 55.466666-12.8-55.466666c-8.533333-25.6-29.866667-46.933333-55.466667-55.466667l-55.466666-12.8 55.466666-12.8c25.6-4.266667 46.933333-25.6 55.466667-55.466667l12.8-55.466666 12.8 55.466666z" fill="#61CFBE" p-id="3335"></path>
<path d="M456.533333 85.333333h17.066667c34.133333 0 64 29.866667 64 64v307.2H396.8V149.333333c0-34.133333 25.6-64 59.733333-64M294.4 486.4h341.333333c29.866667 0 51.2 21.333333 51.2 51.2V597.333333H243.2v-51.2c-4.266667-29.866667 17.066667-55.466667 51.2-59.733333-4.266667 0-4.266667 0 0 0M362.666667 644.266667H247.466667c-12.8 64-34.133333 128-64 187.733333-29.866667 42.666667-64 64-38.4 85.333333s213.333333 21.333333 213.333333 21.333334l4.266667-294.4zM405.333333 648.533333h119.466667l29.866667 285.866667c-29.866667 8.533333-55.466667 12.8-85.333334 12.8H409.6l-4.266667-298.666667zM563.2 644.266667H682.666667c12.8 68.266667 34.133333 132.266667 64 196.266666 29.866667 38.4 25.6 59.733333-17.066667 72.533334-42.666667 8.533333-85.333333 12.8-123.733333 17.066666l-42.666667-285.866666z" fill="#61CFBE" p-id="3336"></path></svg>