<?xml version="1.0" standalone="no"?><!DOCTYPE svg PUBLIC "-//W3C//DTD SVG 1.1//EN" "http://www.w3.org/Graphics/SVG/1.1/DTD/svg11.dtd"><svg t="1678255104852" class="icon" viewBox="0 0 1050 1024" version="1.1" xmlns="http://www.w3.org/2000/svg" p-id="2888" xmlns:xlink="http://www.w3.org/1999/xlink" width="205.078125" height="200"><path d="M840.391517 260.395525c-12.79784-8.531894-29.861628-4.265947-34.127574 8.531893 0 4.265947-4.265947 8.531894-4.265947 12.797841v46.925415H767.870422c-81.052989 8.531894-136.510297 76.787042-132.244351 157.840031v162.105978c0 25.595681-12.79784 42.659468-21.329734 42.659468s-21.329734-17.063787-21.329733-42.659468V486.490705c4.265947-81.052989-55.457308-149.308138-136.510298-157.840031-85.318936 8.531894-145.042191 76.787042-140.776244 157.840031v157.840031c0 25.595681-12.79784 42.659468-21.329734 42.659468s-21.329734-17.063787-21.329734-42.659468V486.490705c4.265947-85.318936-59.723255-153.574084-140.776244-157.840031H55.457308C25.595681 328.650674 0 354.246354 0 384.107982s25.595681 55.457308 55.457308 55.457308h76.787042c8.531894 0 21.329734 17.063787 21.329734 42.659468V640.064789c0 85.318936 59.723255 153.574084 140.776244 162.105978 81.052989-4.265947 140.776244-76.787042 136.510298-157.840031V486.490705c0-25.595681 12.79784-42.659468 21.329734-42.659468s21.329734 17.063787 21.329733 42.659468v157.840031c-4.265947 81.052989 55.457308 149.308138 136.510298 157.840031 81.052989-4.265947 140.776244-76.787042 136.510297-157.840031V486.490705c0-25.595681 12.79784-42.659468 25.595681-42.659468h29.861627v46.925414c0 12.79784 12.79784 25.595681 25.595681 25.595681 4.265947 0 8.531894 0 12.79784-4.265947l166.371925-102.382722c12.79784-4.265947 17.063787-21.329734 12.79784-34.127575l-12.79784-12.79784L840.391517 260.395525z" fill="#F9A01E" p-id="2889"></path></svg>