<?xml version="1.0" standalone="no"?><!DOCTYPE svg PUBLIC "-//W3C//DTD SVG 1.1//EN" "http://www.w3.org/Graphics/SVG/1.1/DTD/svg11.dtd"><svg t="1680768594480" class="icon" viewBox="0 0 1024 1024" version="1.1" xmlns="http://www.w3.org/2000/svg" p-id="8386" xmlns:xlink="http://www.w3.org/1999/xlink" width="200" height="200"><path d="M665.6 399.36c5.12-7.68 12.8-12.8 23.04-12.8 17.92 0 33.28-7.68 46.08-20.48 15.36-15.36 23.04-33.28 20.48-53.76 0-17.92-10.24-35.84-23.04-48.64l-61.44-61.44c10.24-10.24 28.16-10.24 40.96 0l40.96 40.96c17.92 17.92 30.72 43.52 30.72 71.68 0 28.16-10.24 53.76-28.16 74.24-17.92 17.92-43.52 30.72-71.68 30.72-7.68 0-17.92 0-25.6-2.56 2.56-10.24 5.12-12.8 7.68-17.92M599.04 844.8v-5.12-5.12-5.12-5.12c0-5.12-2.56-7.68-2.56-12.8s-2.56-7.68-2.56-12.8c-2.56-7.68-5.12-12.8-7.68-20.48 0-2.56-2.56-7.68-2.56-10.24 0-2.56 0-5.12 2.56-7.68 2.56 0 7.68-2.56 10.24-2.56 74.24-23.04 135.68-71.68 176.64-135.68 40.96-66.56 53.76-143.36 38.4-217.6-2.56 2.56-7.68 5.12-10.24 7.68l-10.24 10.24c-2.56 5.12-5.12 7.68-7.68 12.8-2.56 5.12-5.12 10.24-7.68 12.8-2.56 5.12-5.12 10.24-5.12 15.36-2.56 5.12-2.56 10.24-2.56 15.36 0 5.12-2.56 10.24-2.56 17.92 0 10.24-2.56 20.48-5.12 30.72-2.56 10.24-5.12 20.48-10.24 30.72-5.12 10.24-7.68 20.48-15.36 30.72-5.12 10.24-12.8 20.48-17.92 28.16-7.68 10.24-15.36 17.92-23.04 25.6-7.68 7.68-17.92 15.36-25.6 23.04-10.24 7.68-17.92 12.8-28.16 17.92l-30.72 15.36c-7.68 2.56-12.8 5.12-20.48 7.68-5.12 2.56-7.68-2.56-7.68-7.68l5.12-12.8c2.56-7.68 5.12-12.8 7.68-20.48 0-5.12 2.56-7.68 2.56-12.8s2.56-7.68 2.56-12.8v-5.12-5.12-5.12-5.12c-5.12 5.12-15.36 12.8-25.6 23.04-20.48 17.92-51.2 46.08-97.28 81.92-2.56 2.56-2.56 5.12 0 7.68 46.08 38.4 76.8 64 97.28 81.92 10.24 17.92 20.48 25.6 25.6 30.72M496.64 215.04c-10.24 10.24-20.48 17.92-33.28 20.48-51.2 10.24-97.28 38.4-133.12 76.8-35.84 38.4-58.88 87.04-69.12 138.24-2.56 15.36-10.24 28.16-25.6 38.4-5.12 5.12-12.8 7.68-20.48 10.24-2.56 0-5.12 2.56-7.68 2.56-2.56-84.48 28.16-163.84 87.04-225.28C353.28 212.48 435.2 179.2 519.68 179.2c-2.56 5.12-2.56 7.68-5.12 12.8-5.12 10.24-12.8 17.92-17.92 23.04" fill="#FFFFFF" p-id="8387"></path><path d="M299.52 555.52l-5.12 5.12-10.24 10.24-15.36 15.36c-53.76 51.2-23.04 84.48-23.04 84.48 10.24-35.84 25.6-48.64 43.52-64l5.12-5.12 10.24-10.24 15.36-15.36c53.76-51.2 23.04-84.48 23.04-84.48-10.24 35.84-25.6 46.08-43.52 64M404.48 506.88c2.56 35.84-20.48 58.88-38.4 76.8L309.76 640l-20.48 20.48c-58.88 61.44-17.92 99.84-17.92 99.84-2.56-35.84 20.48-58.88 38.4-76.8l56.32-56.32 20.48-20.48c64-61.44 17.92-99.84 17.92-99.84M394.24 652.8l-5.12 5.12-10.24 10.24-15.36 15.36c-53.76 51.2-23.04 84.48-23.04 84.48 10.24-35.84 25.6-48.64 43.52-64l5.12-5.12 10.24-10.24 15.36-15.36c53.76-51.2 23.04-84.48 23.04-84.48-10.24 35.84-25.6 48.64-43.52 64" fill="#FFFFFF" opacity=".6" p-id="8388"></path><path d="M514.56 381.44c12.8-5.12 25.6-5.12 38.4 0 25.6 10.24 53.76 2.56 74.24-17.92 15.36-15.36 20.48-33.28 20.48-53.76 0-17.92-10.24-35.84-23.04-48.64L563.2 199.68c10.24-10.24 28.16-10.24 40.96 0l40.96 40.96c17.92 17.92 30.72 43.52 30.72 71.68 0 28.16-10.24 53.76-28.16 74.24-20.48 20.48-46.08 28.16-71.68 28.16-25.6 0-51.2-10.24-71.68-30.72 5.12 0 7.68 0 10.24-2.56" fill="#FFFFFF" p-id="8389"></path></svg>