<?xml version="1.0" standalone="no"?>
<!DOCTYPE svg PUBLIC "-//W3C//DTD SVG 1.1//EN" "http://www.w3.org/Graphics/SVG/1.1/DTD/svg11.dtd">
<svg t="1678255137985" class="icon" viewBox="0 0 1792 1024" version="1.1" xmlns="http://www.w3.org/2000/svg" p-id="3036" xmlns:xlink="http://www.w3.org/1999/xlink" width="350" height="200">
<path d="M925.866667 686.933333c12.8 8.533333 17.066667 29.866667 8.533333 42.666667-93.866667 128-247.466667 204.8-409.6 204.8s-315.733333-76.8-409.6-204.8c-8.533333-12.8-8.533333-34.133333 8.533333-42.666667 4.266667-4.266667 17.066667-4.266667 25.6-4.266666l115.2 29.866666c17.066667 4.266667 25.6 17.066667 12.8 38.4l-4.266666 4.266667c-4.266667 8.533333-8.533333 17.066667-12.8 29.866667 72.533333 51.2 166.4 81.066667 260.266666 81.066666 98.133333 0 187.733333-29.866667 260.266667-85.333333-4.266667-12.8-12.8-21.333333-12.8-29.866667v4.266667c-12.8-25.6-4.266667-34.133333 12.8-38.4h4.266667L896 682.666667c12.8 0 21.333333 0 29.866667 4.266666z" fill="#F9A01E" p-id="3037"></path>
<path  opacity="0.6"  d="M550.4 93.866667l315.733333 392.533333c4.266667 8.533333 8.533333 17.066667 8.533334 25.6 0 12.8-4.266667 21.333333-12.8 29.866667v-4.266667c-85.333333 93.866667-204.8 157.866667-341.333334 157.866667-132.266667 0-251.733333-59.733333-341.333333-153.6-4.266667-4.266667-8.533333-12.8-8.533333-25.6s4.266667-21.333333 12.8-29.866667l311.466666-388.266667 4.266667-4.266666c12.8-12.8 34.133333-12.8 51.2 0z" fill="#F9A01E" p-id="3038"></path></svg>