<?xml version="1.0" standalone="no"?>
<!DOCTYPE svg PUBLIC "-//W3C//DTD SVG 1.1//EN" "http://www.w3.org/Graphics/SVG/1.1/DTD/svg11.dtd">
<svg t="1678255238524" class="icon" viewBox="0 0 1092 1024" version="1.1" xmlns="http://www.w3.org/2000/svg" p-id="3483" xmlns:xlink="http://www.w3.org/1999/xlink" width="213.28125" height="200">
<path d="M819.2 490.666667c0-162.133333-132.266667-290.133333-290.133333-290.133334-162.133333 0-290.133333 132.266667-290.133334 290.133334 0 106.666667 55.466667 200.533333 140.8 247.466666-4.266667 12.8-4.266667 25.6-4.266666 38.4v93.866667h311.466666v-93.866667c0-12.8-4.266667-25.6-4.266666-38.4 81.066667-51.2 136.533333-140.8 136.533333-247.466666zM375.466667 925.866667h311.466666c0 55.466667-42.666667 98.133333-98.133333 98.133333h-115.2c-55.466667 0-98.133333-42.666667-98.133333-98.133333z" fill="#F7CE00" p-id="3484"></path>
<path opacity="0.6"  d="M529.450667 0c17.066667 0 34.133333 12.8 34.133333 34.133333v68.266667c0 17.066667-12.8 34.133333-34.133333 34.133333s-29.866667-21.333333-29.866667-38.4V34.133333c0-21.333333 12.8-34.133333 29.866667-34.133333" fill="#F7CE00" p-id="3485"></path>
<path opacity="0.6"  d="M42.666667 503.466667c0-21.333333 12.8-34.133333 34.133333-34.133334h68.266667c17.066667 0 34.133333 12.8 34.133333 34.133334 0 17.066667-12.8 34.133333-34.133333 34.133333H76.8c-21.333333-4.266667-34.133333-17.066667-34.133333-34.133333" fill="#F7CE00" p-id="3486"></path>
<path opacity="0.6" d="M174.933333 157.866667c12.8-12.8 34.133333-12.8 46.933334 0l46.933333 46.933333c12.8 12.8 12.8 34.133333 0 46.933333s-34.133333 12.8-46.933333 0L174.933333 204.8c-12.8-12.8-12.8-34.133333 0-46.933333" fill="#F7CE00" p-id="3487"></path>
<path opacity="0.6"  d="M887.466667 503.466667c0-17.066667 12.8-34.133333 34.133333-34.133334h68.266667c17.066667 0 34.133333 12.8 34.133333 34.133334 0 17.066667-12.8 34.133333-34.133333 34.133333h-68.266667c-17.066667-4.266667-34.133333-17.066667-34.133333-34.133333" fill="#F7CE00" p-id="3488"></path>
<path opacity="0.6"  d="M793.6 251.733333c-12.8-12.8-12.8-34.133333 0-46.933333l46.933333-46.933333c12.8-12.8 34.133333-12.8 46.933334 0s12.8 34.133333 0 46.933333l-46.933334 46.933333c-12.8 12.8-34.133333 12.8-46.933333 0" fill="#F7CE00" p-id="3489"></path></svg>