<?xml version="1.0" standalone="no"?>
<!DOCTYPE svg PUBLIC "-//W3C//DTD SVG 1.1//EN" "http://www.w3.org/Graphics/SVG/1.1/DTD/svg11.dtd">
<svg t="1678255176445" class="icon" viewBox="0 0 1024 1024" version="1.1" xmlns="http://www.w3.org/2000/svg" p-id="3185" xmlns:xlink="http://www.w3.org/1999/xlink" width="200" height="200">
<path  d="M473.6 85.333333l-4.266667 4.266667v4.266667c85.333333 85.333333 136.533333 200.533333 136.533334 324.266666 4.266667 234.666667-179.2 426.666667-413.866667 435.2H170.666667c187.733333 140.8 456.533333 102.4 597.333333-85.333333s102.4-456.533333-85.333333-597.333333c-59.733333-46.933333-132.266667-76.8-209.066667-85.333334" fill="#61CFBE" p-id="3186"></path>
<path opacity="0.6" d="M405.333333 358.4H358.4V307.2c0-17.066667-12.8-29.866667-29.866667-29.866667-17.066667 0-29.866667 12.8-29.866666 29.866667v51.2H247.466667c-17.066667 0-29.866667 12.8-29.866667 25.6 0 17.066667 12.8 29.866667 29.866667 34.133333H298.666667v46.933334c0 17.066667 12.8 29.866667 29.866666 29.866666 17.066667 0 29.866667-12.8 29.866667-29.866666V418.133333h46.933333c17.066667 0 29.866667-12.8 29.866667-29.866666 0-17.066667-12.8-29.866667-29.866667-29.866667z" fill="#61CFBE" p-id="3187"></path></svg>