<?xml version="1.0" standalone="no"?>
<!DOCTYPE svg PUBLIC "-//W3C//DTD SVG 1.1//EN" "http://www.w3.org/Graphics/SVG/1.1/DTD/svg11.dtd">
<svg t="1678248544902" class="icon" viewBox="0 0 1024 1024" version="1.1" xmlns="http://www.w3.org/2000/svg" p-id="2590" xmlns:xlink="http://www.w3.org/1999/xlink" width="200" height="200">
<path d="M742.4 938.666667c-106.666667 0-196.266667-89.6-196.266667-196.266667s89.6-196.266667 196.266667-196.266667 196.266667 89.6 196.266667 196.266667-89.6 196.266667-196.266667 196.266667z" fill="#4FB4E3" opacity="0.6" p-id="2591"></path>
<path d="M375.466667 477.866667H183.466667C128 477.866667 85.333333 430.933333 85.333333 375.466667V183.466667C85.333333 128 128 85.333333 183.466667 85.333333h192c55.466667 0 98.133333 42.666667 98.133333 98.133334v192c4.266667 55.466667-42.666667 102.4-98.133333 102.4zM840.533333 477.866667h-192c-55.466667 0-98.133333-42.666667-98.133333-98.133334V183.466667c0-55.466667 42.666667-98.133333 98.133333-98.133334h192C896 85.333333 938.666667 128 938.666667 183.466667v192c0 55.466667-42.666667 102.4-98.133334 102.4zM375.466667 938.666667H183.466667C128 938.666667 85.333333 896 85.333333 840.533333v-192c0-55.466667 42.666667-98.133333 98.133334-98.133333h192c55.466667 0 98.133333 42.666667 98.133333 98.133333v192c4.266667 55.466667-42.666667 98.133333-98.133333 98.133334z" fill="#4FB4E3" p-id="2592"></path></svg>