<?xml version="1.0" standalone="no"?><!DOCTYPE svg PUBLIC "-//W3C//DTD SVG 1.1//EN" "http://www.w3.org/Graphics/SVG/1.1/DTD/svg11.dtd"><svg t="1680747158707" class="icon" viewBox="0 0 1024 1024" version="1.1" xmlns="http://www.w3.org/2000/svg" p-id="2845" xmlns:xlink="http://www.w3.org/1999/xlink" width="200" height="200"><path d="M773.12 504.32c-51.2-46.08-102.4-92.16-153.6-135.68-12.8-10.24-28.16-17.92-46.08-17.92h-125.44c-15.36 0-33.28 5.12-43.52 17.92-51.2 46.08-102.4 92.16-153.6 135.68-10.24 7.68-10.24 23.04-2.56 33.28 7.68 10.24 23.04 10.24 33.28 2.56 33.28-28.16 66.56-58.88 99.84-87.04 7.68-5.12 17.92 0 17.92 7.68v64c0 23.04 17.92 43.52 43.52 43.52h143.36c23.04 0 43.52-17.92 43.52-43.52V460.8c0-10.24 10.24-12.8 17.92-7.68 33.28 28.16 66.56 58.88 99.84 87.04 10.24 7.68 25.6 7.68 33.28-2.56 2.56-10.24 2.56-25.6-7.68-33.28" fill="#FFFFFF" p-id="2846"></path><path d="M545.28 906.24c-30.72 0-53.76-23.04-53.76-53.76v-64c30.72 0 53.76 23.04 53.76 53.76v64zM545.28 760.32c-30.72 0-53.76-23.04-53.76-53.76v-64c30.72 0 53.76 23.04 53.76 53.76v64zM773.12 637.44c-17.92-23.04-51.2-28.16-74.24-12.8-15.36 10.24-28.16 20.48-43.52 30.72 17.92 23.04 51.2 28.16 74.24 12.8 15.36-10.24 28.16-20.48 43.52-30.72M663.04 604.16c-17.92-23.04-51.2-28.16-74.24-12.8-15.36 10.24-28.16 20.48-43.52 30.72 17.92 23.04 51.2 28.16 74.24 12.8 15.36-10.24 28.16-20.48 43.52-30.72M245.76 637.44c17.92-23.04 51.2-28.16 74.24-12.8 15.36 10.24 28.16 20.48 43.52 30.72-17.92 23.04-51.2 28.16-74.24 12.8-12.8-10.24-28.16-20.48-43.52-30.72M355.84 604.16c17.92-23.04 51.2-28.16 74.24-12.8 15.36 10.24 28.16 20.48 43.52 30.72-17.92 23.04-51.2 28.16-74.24 12.8-12.8-10.24-28.16-20.48-43.52-30.72" fill="#FFFFFF" opacity=".6" p-id="2847"></path><path d="M509.44 117.76c-56.32 0-102.4 46.08-102.4 102.4s46.08 102.4 102.4 102.4 102.4-46.08 102.4-102.4-46.08-102.4-102.4-102.4" fill="#FFFFFF" p-id="2848"></path></svg>